<?xml version="1.0" standalone="no"?>
<!DOCTYPE svg PUBLIC "-//W3C//DTD SVG 20010904//EN"
 "http://www.w3.org/TR/2001/REC-SVG-20010904/DTD/svg10.dtd">
<svg version="1.0" xmlns="http://www.w3.org/2000/svg"
 width="972.000000pt" height="972.000000pt" viewBox="0 0 972.000000 972.000000"
 preserveAspectRatio="xMidYMid meet">

<g transform="translate(0.000000,972.000000) scale(0.100000,-0.100000)"
fill="#000000" stroke="none">
<path d="M3 9433 l2 -288 47 3 c36 3 51 -1 66 -16 15 -15 23 -17 32 -8 10 8
11 8 6 -1 -17 -31 25 -58 51 -32 13 13 67 3 59 -10 -3 -5 6 -8 19 -8 31 0 33
23 3 31 -19 4 -20 7 -9 18 11 10 14 10 18 1 3 -7 11 -13 18 -13 7 0 15 -7 19
-15 4 -11 13 -14 29 -10 19 5 28 -1 47 -28 28 -41 60 -64 60 -44 0 7 -5 18
-10 23 -11 11 8 64 23 64 5 0 5 -4 2 -10 -3 -5 -2 -10 3 -10 5 0 8 -10 8 -21
-1 -12 5 -24 13 -27 8 -3 11 0 7 7 -4 6 -1 11 7 11 8 0 17 7 21 15 4 13 9 13
25 3 11 -7 17 -16 15 -20 -3 -4 2 -8 10 -8 19 0 33 23 18 28 -7 2 -12 8 -12
13 0 6 5 7 10 4 6 -3 10 -1 10 4 0 20 26 11 27 -9 1 -11 10 -28 19 -38 17 -16
17 -16 12 5 -8 29 5 37 34 21 13 -7 27 -12 33 -13 5 0 11 -9 14 -20 2 -11 12
-32 22 -47 11 -14 19 -35 19 -47 0 -11 9 -25 20 -31 12 -6 20 -7 20 -1 0 25
-24 111 -32 111 -4 0 -8 17 -8 39 0 33 4 39 24 43 13 3 38 3 54 0 34 -5 46
-33 28 -64 -8 -13 -6 -21 9 -32 29 -22 35 -20 35 14 0 20 5 30 15 30 11 0 14
7 10 23 -6 26 1 37 35 56 20 10 22 11 13 0 -7 -7 -13 -21 -13 -31 0 -32 24
-19 44 23 12 26 23 38 32 35 17 -7 18 16 2 32 -9 9 -8 12 4 12 9 0 19 -11 22
-25 4 -15 14 -25 24 -25 9 0 28 -12 41 -25 13 -14 29 -25 37 -25 8 0 19 -9 26
-20 19 -29 28 -25 28 14 0 19 5 36 11 38 11 4 14 55 5 98 -3 14 -8 37 -12 53
-3 15 -10 27 -15 27 -5 0 -9 4 -9 9 0 5 24 9 53 8 37 -1 51 2 50 11 -2 6 2 12
7 12 6 0 10 -6 9 -12 -6 -51 37 -117 79 -121 11 0 20 -6 19 -12 -1 -5 4 -9 11
-7 7 1 15 -5 18 -13 4 -8 15 -15 26 -15 14 0 18 5 14 15 -3 8 -2 15 2 15 4 0
7 11 7 24 0 20 -3 22 -14 13 -11 -9 -13 -9 -8 0 4 7 -2 19 -15 28 -21 15 -22
17 -6 28 9 7 18 24 20 37 3 22 4 23 19 7 9 -9 19 -14 22 -11 7 7 -4 44 -14 44
-8 0 -9 9 -10 63 -1 18 -6 27 -17 27 -12 0 -13 3 -4 12 22 22 14 48 -13 48
-14 0 -25 -4 -25 -10 0 -5 -21 -10 -46 -10 -42 0 -46 -2 -41 -21 4 -15 1 -19
-10 -17 -26 5 -40 35 -26 57 10 16 9 20 -5 23 -11 3 -18 16 -20 33 -1 16 -9
36 -17 45 -8 9 -12 20 -8 23 3 4 1 7 -5 7 -15 0 -7 -71 9 -81 16 -9 1 -30 -18
-27 -10 2 -17 -5 -18 -19 -1 -12 2 -20 6 -17 12 7 61 -46 56 -61 -11 -26 9
-35 31 -15 12 11 23 16 27 10 3 -6 2 -10 -3 -10 -5 0 -12 -9 -15 -21 -4 -13
-10 -18 -17 -14 -9 5 -10 1 -5 -15 6 -20 5 -21 -15 -10 -12 7 -25 20 -27 30
-3 11 -11 16 -19 13 -9 -3 -14 1 -14 12 0 9 -6 15 -12 12 -7 -2 -12 -11 -10
-18 3 -11 1 -12 -10 -1 -9 9 -10 15 -2 20 16 10 23 47 12 66 -12 21 -29 21
-21 0 4 -11 -1 -22 -12 -30 -10 -8 -13 -14 -7 -14 8 0 11 -10 8 -27 -2 -16 -5
-32 -5 -36 -1 -5 -6 -5 -12 -2 -6 4 -8 13 -5 20 6 16 -15 35 -41 39 -11 2 -17
11 -16 24 0 12 1 31 2 42 1 11 6 20 11 20 6 0 10 -7 8 -16 -4 -23 14 -27 37
-10 19 14 19 15 -4 9 -21 -5 -23 -3 -18 16 5 19 2 22 -14 18 -10 -3 -22 -1
-25 5 -4 6 -10 5 -15 -3 -7 -11 -9 -11 -9 1 1 8 7 24 15 34 8 11 15 29 15 40
1 19 1 20 11 3 6 -9 14 -15 20 -12 5 4 9 2 9 -3 0 -5 7 -9 15 -9 8 0 15 4 15
9 0 5 4 7 9 4 5 -3 14 0 20 8 9 10 8 15 -4 20 -9 3 -14 10 -10 15 3 5 1 12 -4
16 -6 3 -8 12 -5 20 5 13 -16 15 -140 14 -121 0 -146 -2 -146 -14 0 -8 -7 -15
-15 -15 -8 0 -15 7 -15 15 0 21 -236 20 -244 -2 -3 -8 -11 -11 -17 -7 -8 4 -9
-1 -3 -17 5 -13 8 -39 8 -56 -1 -35 3 -38 26 -23 12 7 12 12 2 22 -6 6 -12 19
-12 28 1 27 46 -38 48 -70 2 -23 -1 -28 -13 -24 -8 4 -15 11 -15 18 -1 20 -29
-38 -30 -61 0 -20 -3 -19 -38 15 -35 33 -47 51 -51 75 -2 12 -42 49 -48 43 -3
-2 2 -15 11 -28 20 -28 20 -38 2 -38 -16 0 -26 21 -26 56 0 13 -5 24 -11 24
-5 0 -7 4 -4 10 3 5 -2 18 -12 29 -16 17 -32 19 -156 19 -131 0 -139 -1 -134
-19 3 -13 0 -19 -10 -19 -10 0 -14 6 -10 19 4 17 -3 19 -83 20 l-88 2 1 -288z
m301 245 c-6 -9 -34 1 -34 11 0 4 3 10 6 14 8 7 33 -16 28 -25z m740 -80 c-8
-13 -36 13 -30 28 3 8 0 13 -6 11 -12 -2 -20 31 -12 53 4 10 14 -1 30 -34 13
-27 21 -53 18 -58z m119 88 c6 -16 -2 -28 -14 -20 -12 7 -11 34 0 34 5 0 11
-6 14 -14z m-183 -6 c0 -5 -2 -10 -4 -10 -3 0 -8 5 -11 10 -3 6 -1 10 4 10 6
0 11 -4 11 -10z m-623 -20 c9 -14 10 -21 1 -26 -10 -7 -38 21 -38 38 0 16 25
8 37 -12z m863 16 c0 -3 -4 -8 -10 -11 -5 -3 -10 -1 -10 4 0 6 5 11 10 11 6 0
10 -2 10 -4z m-480 -16 c0 -5 -5 -10 -11 -10 -5 0 -7 5 -4 10 3 6 8 10 11 10
2 0 4 -4 4 -10z m-535 -11 c11 -17 -1 -21 -15 -4 -8 9 -8 15 -2 15 6 0 14 -5
17 -11z m558 -15 c8 -8 -3 -34 -14 -34 -5 0 -9 9 -9 20 0 19 11 26 23 14z
m-589 -20 c3 -8 2 -12 -4 -9 -6 3 -10 10 -10 16 0 14 7 11 14 -7z m116 0 c0
-8 -27 -34 -36 -34 -3 0 -1 6 5 13 6 8 8 17 4 20 -3 4 1 7 10 7 10 0 17 -3 17
-6z m-180 -19 c0 -8 -2 -15 -4 -15 -2 0 -6 7 -10 15 -3 8 -1 15 4 15 6 0 10
-7 10 -15z m964 -54 c-8 -11 -23 14 -20 32 7 34 8 34 15 2 4 -16 6 -32 5 -34z
m-64 8 c0 -6 -4 -7 -10 -4 -5 3 -10 11 -10 16 0 6 5 7 10 4 6 -3 10 -11 10
-16z m-287 -29 c-3 -11 -11 -16 -19 -13 -14 5 -19 25 -8 36 12 12 32 -5 27
-23z m67 23 c-1 -19 -16 -31 -29 -24 -7 5 -10 14 -7 20 8 12 36 15 36 4z
m-260 -45 c0 -5 -6 -8 -14 -8 -9 0 -12 7 -9 21 4 16 8 17 14 7 5 -7 9 -16 9
-20z m310 16 c0 -17 -22 -14 -28 4 -2 7 3 12 12 12 9 0 16 -7 16 -16z m270 4
c0 -9 4 -8 10 2 6 9 10 10 10 3 0 -17 -14 -23 -30 -13 -10 6 -18 1 -27 -17
-11 -21 -11 -28 -1 -35 9 -5 6 -8 -8 -8 -12 0 -24 7 -28 15 -3 9 0 15 9 15 8
0 15 8 15 18 0 10 3 22 7 25 11 12 43 8 43 -5z m-1033 -30 c-3 -8 -6 -5 -6 6
-1 11 2 17 5 13 3 -3 4 -12 1 -19z m118 -18 c21 -14 25 -20 13 -20 -10 0 -18
4 -18 10 0 5 -6 7 -14 4 -7 -3 -16 2 -19 10 -8 21 2 20 38 -4z m590 10 c3 -5
-1 -10 -9 -10 -9 0 -16 5 -16 10 0 6 4 10 9 10 6 0 13 -4 16 -10z m338 -27 c7
-9 5 -13 -6 -13 -8 0 -17 9 -20 19 -5 22 5 40 12 19 2 -7 8 -19 14 -25z m337
12 c0 -26 -14 -33 -25 -15 -9 14 1 40 15 40 5 0 10 -11 10 -25z m37 9 c-3 -3
-12 -4 -19 -1 -8 3 -5 6 6 6 11 1 17 -2 13 -5z m-1397 -44 c11 -7 12 -12 3
-21 -8 -8 -14 -6 -22 10 -12 22 -5 27 19 11z m1382 -22 c-7 -7 -12 -8 -12 -2
0 14 12 26 19 19 2 -3 -1 -11 -7 -17z m-1408 -44 c4 -9 13 -13 24 -10 15 5 18
0 18 -34 1 -41 -12 -53 -23 -24 -3 9 0 20 8 25 11 6 8 9 -8 9 -13 0 -23 4 -23
10 0 5 -7 7 -15 4 -17 -7 -18 -3 -9 20 8 20 20 20 28 0z m871 -4 c10 -11 25
-20 33 -20 12 0 12 -3 2 -15 -11 -14 -14 -13 -27 5 -8 11 -21 20 -29 20 -8 0
-14 7 -14 15 0 21 13 19 35 -5z m105 10 c0 -5 -5 -10 -11 -10 -5 0 -7 5 -4 10
3 6 8 10 11 10 2 0 4 -4 4 -10z m152 -17 c32 -31 35 -43 11 -43 -27 0 -39 12
-47 43 -8 34 0 34 36 0z m-69 6 c20 -9 25 -19 25 -51 1 -33 -2 -37 -13 -28 -8
7 -20 8 -26 4 -9 -5 -11 -1 -7 14 4 16 2 19 -11 15 -12 -3 -12 -2 2 7 18 11
18 13 1 31 -19 21 -7 25 29 8z m303 -26 c-11 -11 -19 6 -11 24 8 17 8 17 12 0
3 -10 2 -21 -1 -24z m74 3 c0 -3 -4 -8 -10 -11 -5 -3 -10 -1 -10 4 0 6 5 11
10 11 6 0 10 -2 10 -4z m-930 -16 c0 -5 -4 -10 -10 -10 -5 0 -10 5 -10 10 0 6
5 10 10 10 6 0 10 -4 10 -10z m-417 -20 c3 -11 2 -20 -3 -20 -12 0 -31 26 -23
33 11 12 21 7 26 -13z m877 10 c0 -5 -7 -7 -15 -4 -8 4 -15 8 -15 10 0 2 7 4
15 4 8 0 15 -4 15 -10z m200 -34 c0 -3 -4 -8 -10 -11 -5 -3 -10 -1 -10 4 0 6
5 11 10 11 6 0 10 -2 10 -4z m-162 -23 c-9 -2 -20 -17 -23 -34 -7 -30 -25 -40
-25 -13 0 29 20 54 43 53 16 -1 17 -3 5 -6z m120 -21 c11 2 18 -5 20 -19 3
-20 1 -21 -22 -10 -18 9 -26 19 -25 37 1 17 3 20 6 7 2 -10 12 -16 21 -15z
m-1148 14 c0 -3 -4 -8 -10 -11 -5 -3 -10 -1 -10 4 0 6 5 11 10 11 6 0 10 -2
10 -4z m55 -36 c-7 -23 -26 -23 -33 1 -3 11 -2 11 7 -1 9 -12 11 -9 11 15 0
21 3 26 11 18 6 -6 8 -21 4 -33z m60 30 c3 -5 1 -10 -4 -10 -6 0 -11 5 -11 10
0 6 2 10 4 10 3 0 8 -4 11 -10z m995 -4 c0 -3 -4 -8 -10 -11 -5 -3 -10 -1 -10
4 0 6 5 11 10 11 6 0 10 -2 10 -4z m-1031 -45 c-15 -5 -22 6 -14 19 6 9 10 9
16 -1 5 -8 4 -15 -2 -18z m551 -17 c0 -2 -9 -4 -20 -4 -11 0 -20 4 -20 9 0 5
9 7 20 4 11 -3 20 -7 20 -9z m-496 -10 c8 -21 8 -24 -3 -24 -5 0 -11 9 -14 20
-6 24 8 27 17 4z m236 -29 c0 -8 -2 -15 -4 -15 -2 0 -6 7 -10 15 -3 8 -1 15 4
15 6 0 10 -7 10 -15z m120 -5 c0 -5 -5 -10 -11 -10 -5 0 -7 5 -4 10 3 6 8 10
11 10 2 0 4 -4 4 -10z m390 -10 c0 -5 -4 -10 -10 -10 -5 0 -10 5 -10 10 0 6 5
10 10 10 6 0 10 -4 10 -10z m-210 -10 c0 -5 -5 -10 -11 -10 -5 0 -7 5 -4 10 3
6 8 10 11 10 2 0 4 -4 4 -10z"/>
<path d="M525 9710 c-3 -5 -1 -10 5 -10 6 0 8 -4 5 -10 -3 -5 -1 -10 4 -10 13
0 14 27 2 35 -5 3 -12 1 -16 -5z"/>
<path d="M1260 9710 c0 -5 7 -10 15 -10 8 0 15 5 15 10 0 6 -7 10 -15 10 -8 0
-15 -4 -15 -10z"/>
<path d="M1337 9701 c6 -24 53 -47 53 -27 0 8 -7 17 -16 20 -8 3 -12 10 -9 16
3 5 -3 10 -13 10 -15 0 -19 -5 -15 -19z"/>
<path d="M1443 9701 c-11 -17 -8 -19 18 -23 29 -5 40 6 17 15 -8 3 -5 6 5 6
23 1 12 21 -11 21 -10 0 -23 -9 -29 -19z"/>
<path d="M1694 9705 c21 -16 32 -13 21 4 -3 6 -14 11 -23 11 -15 -1 -15 -2 2
-15z"/>
<path d="M2050 9709 c0 -5 5 -7 10 -4 6 3 10 8 10 11 0 2 -4 4 -10 4 -5 0 -10
-5 -10 -11z"/>
<path d="M3336 9688 c-12 -71 -37 -294 -56 -497 -24 -254 -36 -342 -57 -434
l-15 -68 -19 22 c-10 12 -19 19 -19 15 0 -4 -9 -2 -19 4 -14 7 -22 7 -26 -1
-5 -6 -12 -3 -21 9 -13 19 -16 20 -46 5 -28 -15 -32 -15 -43 1 -17 23 -45 20
-45 -4 0 -11 -7 -20 -16 -20 -8 0 -13 4 -10 9 3 4 -2 17 -10 27 -9 10 -13 13
-9 7 3 -7 1 -13 -4 -13 -6 0 -11 5 -11 11 0 12 -42 1 -51 -13 -4 -6 -17 -7
-30 -3 -13 5 -26 7 -28 6 -2 -2 -7 3 -12 10 -6 11 -9 10 -15 -4 -8 -22 -42
-22 -78 2 -17 11 -33 18 -38 15 -4 -3 -8 0 -8 6 0 6 -5 8 -11 4 -7 -4 -36 -6
-66 -5 -38 1 -55 -3 -59 -13 -4 -10 -14 -12 -38 -6 -19 4 -39 11 -45 15 -15 9
-41 -12 -35 -28 5 -14 -93 -17 -115 -3 -16 10 -50 -28 -51 -57 0 -24 -24 -16
-28 9 -3 18 -28 44 -42 44 -3 0 -6 -12 -5 -27 0 -24 -4 -27 -39 -28 -30 -2
-45 4 -72 27 -19 17 -34 38 -34 47 0 35 -15 32 -25 -4 -6 -20 -15 -35 -20 -33
-10 3 -11 7 -14 36 0 6 -13 12 -27 12 l-25 0 20 -26 c24 -30 19 -49 -9 -32
-10 7 -16 16 -14 20 10 17 -8 7 -31 -16 -16 -16 -20 -26 -12 -29 8 -2 7 -11
-6 -31 -10 -14 -16 -30 -13 -34 2 -4 -7 -8 -22 -9 -29 -1 -61 22 -39 30 6 2 9
8 5 12 -4 4 -15 2 -23 -5 -11 -9 -13 -16 -5 -24 16 -16 12 -36 -8 -36 -10 0
-29 -11 -42 -25 l-24 -26 22 -6 c28 -7 28 -17 0 -43 l-23 -21 -17 22 c-26 31
-23 84 8 125 27 35 23 44 -10 19 -26 -20 -33 -19 -39 5 -3 12 -14 20 -27 20
-11 0 -19 -4 -16 -9 3 -4 -2 -15 -12 -23 -24 -21 -86 -5 -78 20 4 12 1 18 -12
18 -11 0 -19 -8 -20 -20 -2 -33 -25 -37 -52 -11 -33 32 -44 32 -36 -1 5 -19 4
-24 -6 -19 -7 4 -5 0 5 -8 12 -10 15 -17 7 -22 -6 -4 -8 -16 -4 -28 6 -19 5
-20 -9 -9 -15 13 -33 2 -20 -12 4 -3 7 -14 8 -24 3 -34 39 -142 48 -142 5 0
11 9 14 20 6 21 36 35 53 25 5 -3 10 -1 10 5 0 6 12 9 28 8 17 -2 26 1 24 10
-1 6 6 12 17 12 28 0 42 23 35 59 -5 24 -3 31 9 31 8 0 20 -7 27 -15 13 -16 4
-55 -13 -55 -7 0 -20 -14 -29 -30 -9 -17 -24 -30 -32 -30 -8 0 -16 -7 -18 -16
-2 -8 -27 -29 -55 -44 -52 -29 -83 -31 -83 -4 0 7 -9 19 -20 27 -14 10 -18 20
-14 32 5 13 3 16 -7 13 -7 -2 -17 -21 -22 -41 -6 -25 -13 -34 -23 -30 -10 4
-13 -3 -10 -26 2 -18 7 -35 11 -39 4 -4 6 2 4 13 -4 22 7 45 21 45 5 0 25 -17
44 -37 31 -34 41 -38 81 -37 25 0 45 -3 45 -8 0 -5 11 -13 25 -18 25 -10 32
-24 16 -34 -4 -3 -6 -17 -3 -31 6 -34 -16 -33 -96 5 -35 17 -70 30 -77 30 -7
0 -18 6 -24 14 -8 10 -23 13 -45 9 -27 -4 -37 0 -52 19 -11 14 -26 28 -34 31
-8 4 1 4 20 1 19 -4 38 -11 42 -17 4 -6 10 -9 13 -5 4 3 -1 18 -10 32 -10 14
-15 33 -11 41 3 8 2 15 -2 15 -5 0 -7 16 -6 35 2 19 -1 35 -6 35 -6 0 -10 -5
-10 -11 0 -7 -7 -8 -17 -4 -10 3 -22 7 -28 8 -5 1 -17 11 -25 21 -13 15 -20
17 -36 8 -10 -6 -14 -12 -8 -12 14 0 74 -51 74 -62 0 -4 -7 -5 -15 -2 -15 6
-21 -14 -16 -60 1 -16 -4 -18 -38 -13 -54 7 -45 -19 10 -28 46 -8 47 -26 2
-38 -27 -8 -31 -14 -39 -66 -8 -48 -12 -56 -32 -59 -20 -3 -22 -8 -17 -33 7
-31 1 -34 -42 -23 -12 3 -23 15 -25 28 -2 14 -9 20 -22 18 -10 -2 -25 -1 -34
3 -14 5 -14 7 -2 16 13 8 13 10 0 19 -11 7 -11 10 -2 10 7 0 10 5 6 11 -4 8
-1 8 13 1 24 -13 46 -1 37 21 -4 12 -1 17 10 17 9 0 16 4 16 9 0 14 -21 25
-29 15 -23 -32 -113 -53 -138 -33 -15 12 -16 12 -10 -4 5 -13 3 -17 -5 -14 -7
2 -12 12 -10 21 2 9 -4 19 -12 22 -18 7 -59 74 -51 82 3 3 22 5 41 4 26 -2 35
1 31 10 -2 7 -15 12 -28 10 -18 -1 -39 12 -79 52 -61 60 -84 86 -79 90 12 10
69 14 69 5 0 -6 5 -7 11 -3 9 5 10 -1 5 -20 -3 -14 -2 -26 3 -26 5 0 16 -3 25
-6 12 -5 16 0 16 20 0 16 -6 26 -15 26 -19 0 -19 14 0 30 12 10 13 16 4 26
-15 18 -29 18 -29 -1 0 -13 -40 -22 -74 -16 -7 1 -54 -13 -144 -44 -7 -3 -10
-10 -7 -15 5 -8 15 -6 31 4 28 19 75 21 92 4 7 -7 12 -24 12 -39 0 -20 6 -29
20 -31 14 -2 17 -7 10 -17 -7 -13 -12 -11 -27 6 -15 18 -22 20 -43 11 -21 -9
-22 -12 -8 -15 26 -6 22 -25 -5 -21 -16 2 -23 -3 -25 -18 -4 -27 24 -52 40
-36 9 9 9 12 0 12 -21 0 -13 28 10 36 15 4 25 1 34 -11 11 -15 11 -21 -5 -34
-10 -9 -18 -27 -17 -40 1 -13 -5 -26 -13 -29 -9 -3 -11 1 -6 17 9 28 -9 27
-28 -2 -8 -12 -24 -23 -35 -24 -17 -1 -24 8 -37 55 -8 31 -20 74 -27 94 -6 20
-8 53 -5 72 5 30 3 36 -13 36 -21 0 -33 -38 -24 -74 3 -13 1 -27 -5 -30 -20
-13 -11 -34 18 -44 25 -9 29 -15 29 -49 0 -36 -31 -84 -45 -69 -4 3 -3 6 2 6
4 0 2 6 -5 14 -6 8 -18 12 -26 9 -9 -3 -12 0 -9 9 3 8 1 28 -5 43 -9 24 -13
27 -21 15 -8 -11 -9 -10 -4 8 5 16 2 22 -9 22 -8 0 -21 6 -28 13 -7 6 -19 12
-25 13 -7 1 -28 2 -45 3 -30 1 -31 3 -13 13 11 6 24 17 28 25 6 10 13 11 29 2
11 -6 24 -7 29 -2 5 5 -14 25 -43 46 -49 37 -50 37 -44 13 4 -17 2 -26 -5 -26
-6 0 -9 -7 -5 -15 5 -14 2 -17 -26 -19 -7 -1 -17 19 -23 44 -10 40 -14 45 -41
46 -38 1 -54 10 -54 30 0 8 -4 14 -10 14 -5 0 -10 12 -10 26 0 14 -4 22 -10
19 -5 -3 -19 -1 -30 5 -15 8 -20 8 -20 -3 0 -7 5 -18 12 -25 9 -9 9 -12 0 -12
-9 0 -12 -44 -12 -170 0 -155 2 -170 18 -170 16 -1 16 -1 0 -14 -16 -12 -18
-32 -18 -165 0 -99 4 -151 11 -151 5 0 8 -4 5 -8 -7 -11 109 -33 162 -30 36 2
47 -2 67 -26 14 -16 25 -33 25 -38 0 -4 11 -8 24 -8 14 0 28 -4 31 -10 11 -17
37 -11 42 10 3 11 9 20 14 20 5 0 6 -7 3 -15 -8 -20 13 -45 32 -38 18 7 15 26
-12 80 -18 35 -19 43 -7 47 13 6 103 -78 103 -96 0 -11 -42 -38 -51 -32 -14 8
-22 -45 -9 -61 6 -8 9 -18 6 -23 -3 -6 1 -15 9 -22 8 -7 15 -19 15 -26 0 -8
11 -14 26 -14 14 0 23 4 19 9 -7 12 12 24 25 16 5 -3 1 -14 -10 -25 -18 -18
-55 -23 -75 -10 -5 4 -22 10 -36 14 -32 7 -60 -17 -41 -36 18 -18 15 -26 -19
-44 -31 -15 -32 -15 -58 13 -14 16 -34 32 -44 36 -9 3 -17 11 -17 18 0 6 7 8
16 5 9 -3 21 -3 27 1 7 4 17 8 22 9 6 0 16 2 24 2 11 2 11 5 1 17 -14 17 -56
20 -65 5 -4 -7 -11 -6 -20 2 -35 32 -45 38 -60 38 -8 0 -15 7 -15 16 0 24 -32
45 -47 32 -10 -8 -13 -4 -13 16 0 24 -2 25 -20 16 -11 -6 -24 -8 -29 -6 -5 3
-12 -1 -15 -10 -3 -8 -10 -12 -16 -9 -6 4 -8 9 -6 13 2 4 -2 13 -10 20 -12 11
-14 -36 -14 -323 0 -217 4 -335 10 -335 6 0 10 -9 10 -21 0 -11 15 -35 32 -53
18 -18 35 -39 36 -47 2 -8 6 -22 8 -33 2 -10 8 -24 15 -32 9 -11 8 -14 -7 -14
-11 0 -25 -9 -32 -20 -7 -11 -8 -20 -3 -20 5 0 15 -16 22 -35 7 -19 19 -37 26
-39 20 -8 43 4 43 23 1 12 5 10 21 -9 12 -14 26 -25 32 -25 6 0 12 -6 15 -12
2 -7 -1 -13 -7 -13 -6 0 -11 -13 -11 -30 0 -21 4 -28 14 -24 7 3 20 -2 29 -10
9 -9 19 -16 23 -16 5 0 3 5 -3 11 -7 7 -9 25 -6 42 4 21 2 32 -10 39 -10 5
-17 16 -17 23 0 22 37 18 60 -5 11 -11 20 -16 20 -11 0 5 9 11 21 14 15 4 23
0 26 -11 2 -10 17 -26 34 -37 16 -11 29 -25 29 -31 0 -6 15 -26 33 -45 19 -19
44 -54 57 -79 12 -25 27 -53 32 -63 5 -10 6 -22 3 -27 -8 -14 29 -30 69 -30
41 0 48 17 11 26 -13 3 -33 20 -44 37 -44 69 -69 103 -90 121 -11 11 -21 25
-21 31 0 7 -14 29 -30 50 -32 41 -39 75 -15 75 8 0 15 -4 15 -9 0 -5 19 -9 43
-8 24 0 49 -3 55 -7 7 -4 12 -2 12 3 0 6 -5 11 -11 11 -6 0 -9 6 -6 13 10 28
-11 42 -57 41 -25 -1 -46 2 -46 7 0 5 -12 9 -26 9 -14 0 -23 4 -20 9 7 11 -37
41 -59 41 -8 0 -15 4 -15 8 0 5 -19 8 -43 8 -43 -1 -97 18 -97 35 0 5 -3 8 -7
6 -5 -1 -8 3 -8 8 0 6 5 9 12 9 16 -2 23 34 9 49 -6 6 -21 26 -33 42 l-21 30
20 25 c14 16 22 21 25 13 6 -18 23 -16 23 2 0 20 38 34 70 25 16 -4 29 -2 35
7 8 11 20 12 53 5 23 -6 44 -6 47 -1 3 4 12 6 20 3 9 -4 15 3 17 23 3 24 8 28
41 31 28 2 37 0 37 -12 0 -9 5 -16 10 -16 13 0 5 47 -11 66 -19 23 17 18 50
-7 16 -12 33 -19 38 -16 5 3 9 -2 10 -11 1 -9 7 -30 13 -47 9 -22 13 -26 20
-15 5 8 6 18 4 22 -10 16 17 8 46 -14 26 -19 27 -23 14 -33 -23 -17 -14 -51
13 -47 15 2 23 -4 28 -19 10 -30 -10 -47 -35 -31 -11 6 -26 12 -34 12 -8 0
-17 14 -21 30 -4 17 -11 30 -15 30 -5 0 -7 -6 -4 -14 3 -8 1 -17 -4 -20 -6 -3
-8 -15 -5 -26 6 -23 -6 -26 -26 -7 -11 10 -14 10 -18 0 -6 -15 -33 -17 -33 -3
0 6 -7 10 -16 10 -22 0 -14 -38 14 -68 12 -14 22 -33 22 -43 0 -12 7 -19 19
-19 11 0 23 -5 27 -11 3 -6 15 -8 26 -5 12 2 27 -2 35 -10 10 -10 19 -11 33
-4 31 17 64 11 92 -14 14 -14 28 -30 30 -37 2 -7 11 -10 21 -6 11 4 15 13 11
24 -13 41 -28 63 -43 64 -11 0 -10 3 6 11 17 8 28 6 52 -11 17 -13 31 -18 31
-14 0 5 15 9 34 10 30 1 35 -3 40 -29 3 -16 12 -36 20 -44 31 -31 197 4 235
50 7 9 21 16 30 16 9 0 22 5 28 11 7 7 37 11 67 11 61 0 76 12 76 61 0 21 4
23 30 19 37 -5 38 7 4 43 -16 17 -23 33 -19 44 4 9 9 31 12 49 4 27 1 32 -15
32 -10 0 -24 -11 -30 -25 -15 -32 -27 -32 -55 1 -12 15 -27 32 -34 39 -7 7
-14 24 -17 38 -5 29 -35 67 -53 67 -17 0 -103 89 -103 107 0 10 -6 12 -22 7
-13 -3 -20 -3 -15 2 4 4 -3 18 -14 30 -18 19 -20 26 -9 39 8 9 8 15 2 15 -6 0
-14 -5 -17 -10 -3 -6 -16 -8 -28 -4 -31 7 -81 -36 -73 -63 4 -12 -1 -29 -14
-46 -11 -14 -20 -30 -20 -36 0 -19 22 -12 27 9 6 23 18 26 27 8 5 -10 7 -10
12 0 8 17 24 5 24 -19 0 -10 7 -19 15 -19 8 0 15 -4 15 -10 0 -5 -15 -10 -34
-10 -49 0 -86 -16 -86 -38 0 -23 19 -42 41 -42 18 0 35 -17 26 -26 -2 -2 -16
0 -30 5 -20 8 -28 6 -43 -10 -9 -10 -23 -19 -31 -19 -7 0 -13 -6 -13 -12 0 -7
-11 5 -25 26 -19 31 -22 44 -13 59 5 11 6 17 0 14 -5 -4 -14 12 -21 33 -9 31
-9 65 0 148 6 59 14 109 16 112 2 2 21 -15 42 -38 21 -23 48 -42 59 -42 23 0
74 72 66 93 -5 15 20 47 37 47 5 0 9 6 9 14 0 41 80 51 112 13 22 -25 22 -28
3 -21 -10 4 -15 0 -15 -15 0 -12 -6 -21 -16 -21 -27 0 -11 -33 21 -43 17 -6
34 -16 38 -23 11 -19 27 -17 43 4 10 13 13 14 14 3 0 -8 9 -24 20 -36 15 -16
18 -27 11 -50 -6 -25 -13 -30 -39 -30 -17 -1 -34 -4 -38 -8 -4 -4 2 -7 13 -7
11 0 24 -10 29 -21 9 -21 11 -21 27 -4 14 14 20 15 33 4 17 -14 47 -80 39 -87
-3 -3 -5 0 -5 6 0 7 -7 12 -15 12 -8 0 -15 7 -15 15 0 8 -7 15 -15 15 -9 0
-15 -9 -15 -25 0 -14 5 -25 10 -25 6 0 10 -7 10 -16 0 -9 6 -14 13 -11 47 19
50 20 43 9 -4 -7 -2 -12 5 -12 7 0 21 -7 31 -17 16 -14 22 -14 43 -3 13 7 23
16 22 19 -1 4 7 24 18 44 14 26 26 37 42 37 27 0 27 0 11 51 -13 46 -6 59 22
34 16 -15 22 -16 35 -5 9 7 18 10 22 6 3 -3 0 -6 -7 -6 -10 0 -9 -5 3 -18 10
-10 17 -23 17 -29 0 -6 7 -13 15 -17 13 -5 13 -2 0 25 -19 35 -13 49 20 49 13
0 27 5 30 10 3 6 13 10 21 10 8 0 25 11 37 25 12 14 32 27 44 28 12 0 25 7 28
15 3 7 9 10 15 7 5 -3 10 0 10 9 0 24 24 24 44 -1 12 -17 19 -43 20 -81 1 -32
5 -63 10 -70 4 -6 2 -12 -3 -12 -6 0 -11 5 -11 10 0 13 -23 13 -55 -2 -39 -18
-31 -72 13 -89 18 -7 28 -6 33 3 7 11 12 11 30 0 15 -10 24 -11 32 -3 27 27
73 -8 92 -69 4 -14 14 -32 22 -41 7 -9 13 -32 11 -51 -2 -41 7 -58 32 -58 10
0 21 -6 23 -12 3 -8 6 -6 6 4 1 10 7 15 15 12 8 -3 16 3 19 15 3 12 1 21 -4
21 -5 0 -9 5 -9 11 0 6 6 9 14 6 8 -3 19 8 29 29 9 19 20 34 24 33 30 -5 43 3
43 26 0 28 -9 31 -29 13 -10 -10 -15 -10 -18 -1 -2 7 -11 9 -20 6 -12 -5 -13
-2 -5 13 33 61 91 70 121 18 11 -19 25 -34 30 -34 5 0 13 -9 16 -21 4 -11 17
-25 30 -31 14 -6 32 -31 45 -59 16 -39 25 -49 45 -49 16 0 39 -18 75 -59 48
-55 57 -61 118 -75 36 -8 69 -13 74 -10 4 3 8 0 8 -6 0 -6 5 -8 10 -5 6 4 8
11 5 16 -4 5 3 9 15 9 12 0 18 -4 15 -10 -3 -5 -3 -10 2 -10 14 0 63 -146 63
-189 0 -21 0 -21 -27 -4 -21 14 -48 18 -113 18 -203 0 -269 -108 -177 -291 42
-83 44 -96 58 -249 21 -246 27 -311 35 -345 6 -29 5 -33 -7 -24 -8 6 -50 14
-94 18 -43 3 -84 11 -89 16 -7 7 -12 114 -14 275 -3 196 -8 269 -17 282 -19
25 -110 22 -411 -12 l-242 -27 -52 35 c-58 39 -84 39 -99 -3 -11 -32 -40 -44
-152 -60 -36 -5 -72 -12 -80 -14 -8 -3 -88 -15 -179 -26 -91 -12 -181 -27
-201 -35 -20 -7 -101 -21 -180 -30 -154 -17 -178 -20 -279 -36 -36 -5 -79 -12
-96 -15 -25 -3 -33 -10 -37 -33 -3 -16 -13 -31 -22 -35 -9 -3 -13 -2 -10 4 3
5 -13 9 -37 8 -81 -1 -228 9 -235 15 -3 4 -37 7 -75 7 l-68 0 0 -100 c0 -87 2
-101 18 -107 9 -3 25 -13 34 -20 9 -8 22 -12 29 -7 8 5 10 3 4 -6 -6 -10 -4
-12 8 -7 11 4 17 1 17 -7 0 -13 34 -30 53 -27 4 1 14 -4 22 -11 34 -30 45 -38
56 -38 12 0 72 -40 77 -52 2 -4 10 -8 17 -8 7 0 15 -3 17 -7 1 -5 21 -18 43
-30 43 -24 52 -43 54 -115 1 -50 2 -51 71 -62 54 -9 63 -32 63 -170 -1 -111 1
-118 12 -81 7 22 18 84 25 138 l14 97 29 0 c21 0 28 -4 24 -14 -3 -8 -2 -16 3
-18 5 -2 17 -25 27 -53 12 -33 25 -51 38 -54 11 -2 33 -13 50 -26 26 -19 41
-22 110 -20 44 1 88 5 97 9 10 4 36 6 59 3 24 -3 76 3 121 14 109 26 154 25
169 -3 7 -13 15 -91 18 -189 l6 -167 -61 -51 c-57 -47 -94 -99 -94 -134 0 -24
-22 -34 -82 -39 -32 -3 -58 -3 -58 -2 0 2 12 34 26 71 17 46 28 96 31 153 6
101 -4 132 -73 220 -59 75 -105 95 -219 95 -68 0 -90 -5 -145 -31 -36 -17 -72
-37 -80 -46 -8 -8 -24 -19 -35 -26 -18 -10 -17 -11 11 -12 17 0 42 -8 55 -19
13 -10 44 -22 69 -26 25 -4 64 -13 87 -21 23 -7 50 -11 59 -7 13 5 16 2 12 -9
-4 -9 -2 -20 2 -24 6 -6 0 -21 -14 -38 l-23 -29 -45 15 c-28 10 -51 12 -59 7
-8 -5 -11 -9 -7 -9 4 0 -6 -15 -23 -32 -24 -27 -35 -32 -67 -29 -20 1 -42 7
-49 12 -7 6 -13 6 -17 1 -4 -6 -21 -7 -43 -1 -55 12 -56 12 -50 -21 6 -29 5
-30 -31 -31 -34 0 -35 -1 -13 -10 14 -5 31 -7 38 -5 7 3 14 -1 14 -9 1 -15 4
-28 9 -42 1 -5 2 -11 1 -15 0 -4 11 -3 25 2 32 13 37 12 29 0 -4 -6 -1 -18 6
-26 7 -8 13 -28 13 -44 1 -28 0 -28 -46 -23 l-46 6 -7 -58 c-6 -48 -5 -60 9
-70 18 -14 22 -30 5 -19 -8 5 -10 -3 -5 -27 4 -19 6 -43 6 -54 -1 -11 -1 -37
-2 -58 l0 -37 -44 0 c-54 0 -181 -34 -254 -68 -32 -15 -85 -54 -127 -95 l-73
-70 0 -58 0 -58 48 -7 c26 -4 85 -8 132 -10 47 -1 95 -2 108 -3 12 0 32 -1 45
0 36 0 131 -9 147 -14 42 -14 183 -25 276 -21 72 3 104 0 104 -7 0 -6 9 -9 20
-6 14 3 20 0 20 -10 0 -12 7 -14 32 -9 18 4 49 9 68 11 19 2 51 7 70 10 54 9
82 6 99 -8 46 -39 117 -60 208 -63 104 -4 110 -6 196 -89 32 -30 64 -55 71
-55 6 0 29 -9 51 -20 21 -11 53 -21 72 -22 18 -1 33 -6 33 -10 0 -4 10 -4 23
1 50 21 63 24 80 22 9 -1 17 3 17 10 0 8 4 8 15 -1 12 -10 18 -10 30 0 8 7 22
10 30 6 10 -4 15 1 15 14 0 10 4 22 10 25 10 6 150 26 184 26 10 0 28 7 40 15
13 7 36 16 53 18 16 1 44 10 61 19 19 9 32 11 32 5 0 -6 6 -8 13 -5 7 3 23 -1
35 -7 55 -30 222 3 208 40 -7 19 28 4 137 -59 234 -136 341 -209 500 -339 l89
-73 -33 -6 c-44 -8 -106 -36 -116 -51 -4 -7 -17 -18 -28 -24 -11 -6 -19 -15
-18 -20 3 -14 -27 -21 -74 -19 -24 2 -43 -1 -43 -6 0 -13 -34 -11 -49 4 -10
10 -16 7 -32 -12 -10 -13 -19 -20 -19 -16 0 4 -11 0 -25 -9 -13 -9 -33 -16
-45 -16 -11 0 -20 -4 -20 -10 0 -18 -39 -31 -59 -21 -13 7 -24 6 -37 -4 -11
-8 -29 -11 -41 -8 -17 4 -23 1 -23 -11 0 -15 -12 -21 -34 -17 -21 4 -56 -10
-56 -23 0 -17 -128 -132 -143 -129 -17 4 -59 -74 -52 -97 4 -13 -2 -23 -25
-37 -19 -11 -34 -29 -37 -46 -4 -21 -8 -25 -19 -16 -11 9 -16 5 -25 -17 -6
-16 -15 -37 -20 -47 -6 -10 -7 -22 -4 -27 4 -6 0 -10 -9 -10 -17 0 -66 -56
-66 -76 0 -8 -4 -14 -10 -14 -5 0 -10 -6 -10 -14 0 -8 -14 -27 -30 -43 -17
-15 -30 -33 -30 -39 0 -7 -12 -15 -27 -19 -22 -6 -24 -9 -12 -14 13 -5 14 -8
4 -18 -7 -7 -17 -8 -26 -2 -20 13 -29 11 -29 -6 0 -8 -9 -19 -20 -25 -11 -6
-18 -16 -14 -21 4 -7 -3 -9 -17 -7 -13 1 -24 8 -24 13 0 6 -4 15 -8 22 -14 21
-4 99 15 122 17 22 19 22 43 7 13 -9 27 -16 30 -16 10 0 5 36 -7 48 -9 9 -9
15 -1 23 22 22 3 38 -35 33 -50 -6 -68 6 -51 34 10 17 10 24 -3 44 -9 14 -22
25 -30 26 -7 0 -34 2 -60 3 -42 1 -48 4 -59 33 -16 41 -16 41 -34 26 -20 -16
-20 4 0 24 11 11 13 21 5 40 -5 14 -14 26 -19 26 -9 0 -22 27 -27 58 -1 7 -11
21 -21 30 -19 17 -53 81 -53 100 0 5 -14 12 -31 16 -17 3 -28 10 -24 16 3 5
-1 10 -10 10 -10 0 -13 -5 -9 -12 5 -8 2 -9 -12 -4 -10 5 -36 10 -58 11 -29 3
-39 0 -43 -14 -3 -12 -16 -17 -51 -19 -26 -1 -59 -4 -75 -6 -15 -2 -30 1 -33
5 -3 5 -13 9 -21 9 -21 0 -181 48 -207 62 -19 10 -129 49 -134 48 -6 -3 -100
13 -127 20 -16 5 -52 14 -78 21 -34 8 -47 17 -46 28 4 44 -2 62 -26 73 -14 6
-25 15 -25 20 0 15 -25 36 -66 54 -27 11 -68 17 -131 18 -78 1 -95 4 -115 22
-19 17 -35 20 -85 19 -35 -1 -63 2 -63 7 0 4 -5 8 -10 8 -6 0 -23 15 -39 32
-16 18 -32 30 -35 27 -3 -3 -10 -46 -15 -96 -10 -98 -24 -134 -65 -172 -24
-22 -26 -31 -26 -103 0 -43 2 -78 5 -78 3 0 28 11 55 25 68 34 198 70 305 85
130 17 364 15 459 -4 124 -25 281 -76 312 -103 26 -21 27 -23 7 -18 -13 4 -23
2 -23 -3 0 -20 -172 -17 -204 3 -13 9 -28 15 -32 14 -19 -3 -33 2 -50 18 -21
21 -52 20 -197 -7 -118 -22 -162 -44 -65 -33 37 5 49 3 44 -5 -4 -7 -2 -12 3
-12 22 0 10 -20 -14 -26 -24 -6 -24 -7 -8 -20 16 -12 15 -13 -17 -15 -19 0
-46 -3 -60 -5 -14 -2 -46 -6 -71 -9 -56 -5 -90 -18 -113 -41 -15 -14 -19 -15
-26 -4 -15 24 79 70 140 70 27 0 50 5 50 10 0 10 -25 14 -69 10 -24 -2 -24 -1
-8 24 15 22 15 26 2 26 -8 0 -20 -9 -27 -20 -10 -15 -24 -20 -55 -20 -30 0
-43 -4 -43 -14 0 -8 6 -16 13 -19 6 -2 0 -8 -15 -12 -16 -4 -25 -12 -22 -20
12 -30 -63 -60 -168 -68 -10 -1 -18 -5 -18 -11 0 -5 27 -6 65 -3 36 4 65 4 65
1 0 -16 -61 -50 -109 -62 -30 -7 -63 -20 -74 -29 -16 -15 -19 -15 -27 -3 -8
12 -10 10 -10 -8 0 -20 2 -21 21 -11 22 11 143 9 155 -4 4 -3 2 -12 -4 -19 -8
-10 4 -13 58 -14 53 0 67 3 59 12 -8 9 -1 10 31 2 40 -10 49 -21 30 -33 -15
-10 -12 -35 5 -35 8 0 15 4 15 9 0 4 25 6 55 4 34 -2 55 0 55 7 0 5 5 10 11
10 5 0 8 -4 5 -9 -9 -13 57 -51 93 -54 17 -1 31 -6 31 -11 0 -4 -21 -6 -48 -2
-49 5 -41 -7 14 -18 26 -6 32 -3 44 19 14 26 20 28 60 15 17 -5 19 -8 8 -9
-10 -1 -18 -5 -18 -10 0 -4 32 -9 70 -9 39 0 94 -6 123 -12 82 -17 289 -15
422 4 66 10 134 19 150 20 17 2 48 8 70 15 78 24 141 0 103 -40 -7 -8 -25 -29
-41 -47 -15 -19 -27 -29 -27 -23 0 6 -6 8 -14 5 -8 -3 -19 3 -25 15 -13 23
-43 18 -39 -7 2 -9 -5 -18 -14 -20 -11 -2 -18 3 -18 12 0 9 -4 16 -10 16 -13
0 -13 -27 1 -35 6 -4 -4 -17 -25 -31 -48 -33 -55 -30 -20 8 16 18 21 26 12 19
-15 -11 -19 -11 -24 2 -4 12 -11 13 -35 5 -16 -5 -34 -19 -40 -29 -12 -23 -37
-25 -45 -4 -9 23 -24 7 -24 -26 0 -45 -25 -31 -27 15 -1 42 -12 62 -14 25 -3
-62 -5 -73 -16 -76 -7 -3 -13 2 -13 11 0 9 -7 16 -15 16 -8 0 -15 -3 -15 -8 0
-10 -59 -36 -88 -39 -19 -2 -22 2 -17 18 7 20 6 20 -19 4 -14 -10 -26 -14 -26
-10 0 4 -7 2 -15 -5 -9 -7 -18 -10 -22 -7 -3 4 -12 2 -20 -5 -11 -9 -15 -7
-20 10 -3 12 -10 22 -17 22 -16 -1 -46 -25 -46 -37 0 -16 -40 -23 -61 -12 -14
7 -21 5 -28 -10 -10 -18 -61 -27 -61 -10 0 5 5 9 11 9 8 0 7 5 -2 16 -12 14
-14 14 -21 -5 -10 -29 -53 -44 -80 -30 -17 9 -18 13 -7 20 9 6 10 9 2 9 -6 0
-15 -4 -18 -10 -9 -15 -25 -12 -25 4 0 10 -10 14 -30 14 -17 -1 -30 -5 -30 -9
0 -5 -7 -6 -15 -3 -8 4 -23 0 -32 -7 -15 -12 -16 -12 -9 6 5 11 11 29 13 40
l5 20 -15 -20 c-9 -11 -17 -15 -17 -7 0 14 -40 17 -40 2 0 -5 -5 -10 -11 -10
-5 0 -7 4 -4 10 3 5 -2 9 -12 8 -37 -3 -53 2 -53 17 0 13 -4 14 -21 5 -14 -8
-24 -8 -33 -1 -8 7 -15 4 -24 -10 -7 -10 -16 -19 -21 -19 -14 0 -19 44 -8 71
12 28 16 69 7 69 -3 0 -11 -15 -18 -33 -8 -22 -25 -40 -51 -54 -29 -15 -38
-17 -34 -7 3 8 9 14 14 14 4 0 6 7 3 15 -4 8 -1 15 6 15 6 0 8 5 5 10 -4 6 12
31 34 57 43 48 50 63 28 63 -7 0 -19 -16 -26 -35 -12 -33 -31 -48 -31 -24 0 6
-7 8 -15 5 -54 -22 -52 -23 -32 7 14 21 15 27 3 27 -7 0 -19 -7 -26 -15 -7 -9
-22 -14 -34 -13 l-21 3 -3 -1362 -2 -1363 2457 0 c1591 0 2453 4 2443 10 -8 5
-26 10 -40 11 l-25 1 25 8 c42 13 58 11 65 -10 6 -20 20 -20 2401 -20 l2394 0
-1 2002 c0 1127 -4 1994 -9 1983 -8 -18 -9 -17 -9 8 -1 16 3 26 9 22 6 -4 10
6 10 22 0 22 -2 25 -10 13 -8 -12 -10 -11 -10 6 0 11 -3 24 -7 28 -11 11 -14
48 -3 41 6 -4 10 6 10 23 0 20 -7 32 -25 42 -14 7 -24 19 -23 26 3 13 1 14
-29 14 -15 0 -16 -2 -3 -10 13 -8 11 -12 -7 -30 -26 -24 -46 -26 -63 -5 -7 9
-19 14 -26 11 -7 -3 -14 0 -16 5 -2 7 -13 7 -31 0 -17 -7 -27 -7 -27 -1 0 6
-6 10 -14 10 -8 0 -17 4 -20 9 -4 5 4 7 16 4 20 -4 19 -2 -5 12 -19 11 -32 13
-45 6 -11 -6 -24 -6 -35 0 -11 7 -17 7 -17 0 0 -13 -29 -3 -54 18 -18 15 -19
15 -13 -2 4 -10 3 -16 -1 -14 -4 3 -16 1 -27 -3 -21 -8 -75 16 -75 33 0 5 -7
6 -16 3 -8 -3 -12 -2 -9 4 3 6 -1 10 -9 10 -25 0 -19 20 7 21 16 1 17 3 5 6
-9 2 -20 13 -23 23 -5 16 -10 17 -35 7 -17 -6 -30 -15 -30 -19 0 -13 -38 -9
-43 5 -2 6 -8 0 -12 -15 -7 -27 -25 -39 -25 -17 0 5 -5 7 -11 4 -6 -4 -8 -13
-5 -21 3 -8 -1 -14 -11 -14 -9 0 -25 -8 -36 -18 -11 -9 -17 -12 -14 -5 4 6 1
13 -5 15 -8 3 0 12 17 21 l30 16 -33 -3 c-19 -2 -39 -9 -45 -16 -9 -10 -9 -11
1 -6 6 4 12 2 12 -3 0 -15 -37 -14 -43 2 -3 7 -6 5 -6 -5 -1 -10 -7 -18 -15
-18 -7 0 -19 -7 -26 -15 -7 -9 -20 -15 -29 -13 -9 1 -22 -1 -28 -5 -7 -5 -13
-4 -13 2 0 5 6 12 13 14 6 3 2 6 -11 6 -15 1 -21 -3 -16 -10 5 -8 2 -9 -11 -1
-28 15 -27 42 1 52 30 12 31 22 2 18 -17 -2 -22 1 -20 15 2 9 -2 17 -7 17 -6
0 -9 17 -6 40 2 25 0 38 -6 34 -6 -3 -8 -12 -5 -19 3 -8 -1 -18 -8 -25 -10 -8
-15 -6 -20 6 -5 13 -9 15 -18 6 -7 -7 -20 -12 -30 -12 -14 0 -11 6 14 30 18
16 27 30 21 30 -7 0 -13 -5 -13 -11 0 -6 -11 -9 -24 -7 -13 1 -31 -3 -40 -11
-9 -7 -16 -10 -16 -7 0 4 -15 -4 -33 -18 -44 -34 -51 -33 -32 4 17 32 31 41
21 13 -5 -14 -3 -14 11 3 10 11 31 28 46 38 16 10 26 20 24 23 -5 4 -44 -16
-130 -67 -47 -28 -59 -20 -22 14 27 25 24 35 -5 17 -21 -14 -33 -1 -17 17 11
13 12 20 4 27 -17 15 -46 12 -58 -5 -9 -12 -10 -10 -6 8 5 24 -10 31 -19 8 -3
-7 -23 -19 -44 -26 -22 -7 -37 -17 -34 -21 6 -10 -45 -58 -71 -65 -11 -3 -44
-31 -72 -62 -39 -41 -56 -53 -64 -45 -18 18 -17 76 3 115 19 39 15 51 -8 21
-7 -10 -15 -15 -18 -12 -10 9 48 83 95 121 24 20 80 55 124 78 44 23 73 40 65
37 -75 -22 -133 -45 -173 -70 -41 -25 -51 -27 -77 -18 -17 5 -30 8 -30 5 0 -2
-12 2 -27 9 -16 8 -44 17 -63 20 -37 6 -380 184 -414 216 -12 10 -57 35 -101
56 -44 20 -120 56 -170 80 -79 39 -96 43 -143 40 -30 -3 -68 -14 -87 -25 -18
-11 -40 -20 -48 -20 -26 0 -86 -59 -111 -109 -23 -45 -76 -203 -76 -225 0 -6
-22 -32 -50 -57 -27 -25 -50 -42 -50 -38 0 5 9 32 21 61 26 65 69 206 69 226
0 23 -37 -24 -50 -64 -7 -19 -18 -34 -25 -34 -7 0 -15 -4 -17 -10 -1 -5 -12
-11 -23 -13 -49 -9 -145 -56 -152 -75 -3 -6 -24 -20 -47 -31 -22 -10 -69 -44
-103 -75 -33 -31 -65 -56 -69 -56 -8 0 -83 -33 -117 -51 -10 -6 -28 -7 -39 -3
-11 3 -18 2 -15 -2 3 -5 -9 -10 -26 -10 -18 -1 -68 -4 -112 -8 -44 -3 -111 -8
-148 -11 -73 -5 -91 -11 -82 -26 4 -5 0 -10 -7 -10 -20 -2 -32 -5 -48 -11 -8
-4 -36 -14 -62 -23 -30 -11 -70 -40 -109 -77 -40 -39 -65 -56 -72 -49 -6 6
-17 3 -30 -10 -11 -10 -31 -19 -44 -19 -13 0 -23 -4 -23 -10 0 -5 -11 -10 -25
-10 -14 0 -25 -6 -25 -14 0 -22 -143 -107 -157 -92 -3 3 -11 -4 -17 -17 -7
-12 -18 -23 -26 -23 -8 -1 -21 -2 -27 -3 -7 0 -12 -4 -12 -8 1 -5 1 -15 0 -23
-1 -11 -4 -11 -13 -2 -19 19 -30 14 -18 -8 8 -16 8 -20 -4 -20 -8 0 -22 -8
-31 -17 -14 -14 -20 -14 -37 -4 -19 12 -20 12 -4 -10 28 -41 16 -80 -14 -44
-7 8 -17 15 -22 15 -6 0 -5 -6 2 -15 6 -8 9 -23 5 -35 -5 -15 -12 -19 -31 -14
-29 8 -30 0 -3 -34 22 -29 12 -40 -21 -22 -29 16 -37 5 -15 -20 19 -21 13 -42
-7 -22 -7 7 -16 12 -22 12 -6 0 -5 -5 2 -12 16 -16 15 -28 -2 -28 -26 0 -25
-38 1 -55 14 -9 22 -19 20 -22 -3 -2 -19 5 -35 17 -40 30 -60 23 -33 -12 26
-33 27 -47 2 -24 -10 10 -25 14 -35 10 -16 -6 -58 9 -82 31 -36 31 -54 44 -73
50 -12 3 -21 12 -22 18 -1 23 -69 69 -109 74 -22 3 -40 2 -40 -3 0 -5 18 -35
40 -67 34 -49 120 -200 120 -210 0 -2 -13 -2 -30 1 -16 2 -28 8 -25 12 5 8
-99 62 -113 58 -4 -1 -20 5 -35 13 -23 12 -26 18 -15 26 7 6 22 13 33 15 12 2
21 13 23 26 4 29 -109 142 -142 142 -25 -1 -108 -29 -153 -53 -18 -9 -43 -17
-55 -17 -13 0 -83 1 -156 3 -74 1 -136 -2 -139 -6 -5 -9 -51 27 -203 159 -58
50 -157 133 -220 183 -63 51 -129 105 -145 119 -17 15 -55 46 -85 69 -30 22
-77 62 -105 87 -44 42 -46 45 -17 31 30 -14 32 -14 33 2 1 10 1 21 0 25 0 4 8
12 19 18 11 6 18 15 15 20 -6 10 40 44 70 52 11 3 29 9 39 14 15 6 17 4 11 -6
-5 -8 6 -4 23 9 18 12 36 19 42 16 5 -3 10 0 10 7 1 7 21 26 45 41 25 16 45
32 45 36 0 13 47 0 67 -18 10 -10 31 -21 46 -25 15 -3 31 -14 34 -24 14 -39
24 -43 59 -21 19 11 34 17 34 14 0 -4 6 -3 13 2 6 6 35 9 62 8 36 -1 54 3 65
15 22 25 103 86 139 104 16 9 32 25 36 36 3 11 11 20 16 20 5 0 9 7 9 15 0 8
7 15 15 15 8 0 15 5 15 10 0 20 25 -12 26 -34 7 -90 10 -106 21 -110 7 -3 13
-10 13 -16 0 -6 -6 -8 -12 -4 -10 6 -10 4 0 -7 16 -18 15 -30 -8 -57 -19 -23
-89 -45 -76 -24 10 17 -32 31 -71 25 -36 -6 -41 -14 -18 -33 8 -7 12 -16 9
-21 -3 -5 4 -9 15 -9 14 0 19 -5 15 -15 -4 -11 -2 -13 9 -9 10 3 21 -4 31 -19
15 -23 21 -24 104 -22 48 1 93 -3 100 -8 7 -6 12 -6 12 0 0 5 6 10 13 11 29 2
45 9 71 29 38 30 120 59 186 66 72 7 120 25 121 45 0 10 3 12 5 5 4 -9 15 -9
48 1 24 7 63 11 88 9 33 -3 54 1 82 16 41 24 72 27 78 9 4 -11 86 -13 96 -3 5
5 -26 75 -33 75 -4 0 -15 -5 -25 -10 -15 -8 -21 -6 -30 7 -9 15 -12 15 -17 4
-11 -27 -65 143 -65 202 1 15 -4 25 -9 22 -5 -4 -9 -2 -9 3 0 4 -17 7 -37 5
-29 -2 -42 2 -54 19 -16 20 -16 23 5 41 11 10 16 16 9 13 -6 -4 -14 -2 -18 4
-3 5 -3 10 2 10 4 0 19 18 33 40 24 40 43 50 56 29 4 -8 9 -7 15 2 8 12 11 11
19 -1 5 -8 10 -10 10 -4 0 7 16 15 35 18 19 4 35 11 35 16 0 6 5 10 12 10 6 0
9 -3 5 -6 -12 -13 33 -47 63 -47 16 0 30 -4 30 -9 0 -13 64 -10 78 4 9 9 12 8
12 -5 0 -11 6 -17 18 -15 11 2 22 -8 31 -29 8 -18 19 -33 24 -33 12 0 37 -27
37 -40 0 -8 8 -10 21 -7 17 5 24 -2 40 -39 11 -24 24 -44 30 -44 5 0 9 -16 7
-35 -2 -37 14 -66 26 -46 4 6 14 11 22 11 8 0 12 -4 9 -10 -3 -5 2 -10 11 -10
16 0 16 1 0 19 -11 12 -13 21 -7 25 6 4 8 13 5 21 -4 9 1 17 12 21 11 3 31 12
47 20 18 10 27 11 27 4 0 -6 5 -8 10 -5 16 10 11 -32 -6 -49 -8 -9 -12 -16 -8
-16 4 0 -1 -7 -12 -15 -10 -8 -15 -15 -11 -15 4 0 -3 -19 -17 -42 -13 -24 -29
-60 -34 -80 -10 -35 -9 -38 11 -38 12 0 28 9 35 20 7 11 19 20 27 20 9 0 15 9
15 24 0 14 4 27 10 31 5 3 7 11 5 18 -6 16 35 83 43 71 9 -12 102 -17 102 -5
0 5 15 13 33 16 28 7 58 26 120 80 9 8 20 15 23 15 12 0 53 38 47 44 -3 3 1 6
10 6 9 0 17 3 17 8 0 13 59 41 65 31 6 -9 55 -2 65 10 3 3 24 7 46 9 35 2 47
-2 75 -28 21 -18 40 -28 49 -24 38 15 67 14 89 -5 13 -12 28 -18 33 -14 6 3
22 7 37 8 38 3 100 32 107 49 8 22 -5 39 -20 27 -7 -6 -16 -8 -20 -4 -4 4 -11
1 -16 -7 -7 -10 -10 -11 -10 -2 0 6 -6 12 -14 12 -8 0 -17 -6 -20 -12 -3 -7
-5 1 -4 17 1 17 -1 36 -6 43 -4 7 -5 16 -2 19 3 3 -1 15 -9 27 -8 11 -15 35
-15 52 0 26 -5 32 -32 40 -33 10 -36 15 -39 101 -2 39 2 58 16 73 26 28 15 97
-20 127 -14 13 -32 23 -39 23 -15 0 -57 46 -49 54 4 3 1 6 -5 6 -7 0 -12 7
-12 15 0 9 -9 15 -25 15 -16 0 -25 6 -25 16 0 9 -7 28 -16 44 -20 33 -14 66
18 97 60 58 98 93 100 92 2 0 16 4 31 10 25 10 33 7 67 -21 22 -18 40 -39 40
-45 0 -15 16 -17 25 -3 3 5 15 6 27 1 13 -4 38 -1 65 8 41 15 45 15 54 -1 7
-13 15 -15 42 -7 39 11 40 11 32 -1 -3 -5 4 -19 16 -31 15 -15 19 -28 14 -47
-7 -29 -50 -72 -72 -72 -7 0 -16 -7 -19 -15 -4 -8 -14 -15 -24 -15 -23 0 -64
-55 -54 -72 4 -6 7 -28 6 -48 -1 -31 3 -39 24 -48 14 -7 35 -12 47 -12 67 -1
91 -35 57 -82 -22 -30 -26 -48 -10 -48 6 0 10 -12 10 -26 0 -14 4 -23 10 -19
6 3 10 0 10 -8 0 -31 117 -49 163 -26 32 16 77 61 77 75 0 7 12 27 27 44 42
50 34 80 -35 152 -39 38 -62 72 -66 92 -6 33 -62 85 -93 87 -16 0 -16 1 2 9
16 7 16 9 4 9 -10 1 -24 18 -33 41 -9 22 -22 40 -31 40 -23 0 -8 24 28 45 18
10 35 23 38 28 4 5 30 4 64 -2 33 -6 61 -7 64 -3 12 17 50 20 63 5 15 -19 19
-43 7 -43 -6 0 -8 -4 -5 -9 4 -5 1 -11 -5 -13 -6 -2 13 -28 41 -58 l53 -53 59
12 c43 9 63 9 79 1 22 -13 119 -4 119 10 0 4 15 8 34 8 36 0 96 26 96 42 0 9
-15 14 -33 11 -5 -1 -6 3 -3 8 4 5 -2 12 -12 15 -20 7 -172 153 -170 164 2 10
-14 46 -23 52 -4 3 -9 14 -11 25 -1 11 -20 28 -43 39 -22 11 -45 27 -52 37
-21 28 -114 62 -183 65 -36 1 -55 0 -42 -2 16 -4 22 -11 18 -21 -3 -8 -6 -24
-6 -34 0 -12 -4 -17 -11 -13 -8 4 -9 -1 -4 -17 6 -20 5 -22 -6 -11 -7 6 -32
12 -55 12 -32 0 -52 -8 -87 -35 -25 -19 -48 -35 -50 -35 -3 0 -20 14 -38 31
-23 22 -34 41 -34 61 -1 26 1 27 12 12 20 -27 16 -8 -9 47 -16 35 -31 52 -52
59 -43 15 -49 13 -70 -23 l-19 -32 -9 28 c-6 17 -16 26 -26 25 -10 -2 -16 2
-15 9 3 13 -67 43 -102 43 -13 0 -47 9 -75 20 -28 11 -72 20 -98 20 -89 0 -92
3 -92 82 0 38 -5 100 -11 138 l-12 69 32 42 c41 57 44 127 6 165 -19 19 -29
23 -38 15 -10 -8 -10 9 2 77 8 48 15 88 15 89 2 4 248 -59 299 -77 32 -11 119
-29 195 -41 75 -11 151 -24 169 -28 39 -11 43 -7 43 42 0 22 4 68 10 101 5 34
19 142 30 241 12 99 30 248 40 330 10 83 22 179 25 215 8 83 42 347 60 470 8
52 24 178 35 280 12 102 25 192 29 200 5 9 12 63 15 120 4 58 10 114 12 125 5
19 4 19 -13 -2 l-18 -22 -90 25 c-84 22 -91 23 -102 7 -7 -9 -13 -13 -13 -9 0
5 -6 3 -14 -3 -11 -9 -20 -9 -34 -2 -15 8 -21 7 -26 -4 -7 -19 -33 -9 -41 15
-4 12 -12 17 -21 13 -12 -4 -14 0 -9 20 6 22 2 28 -32 45 -45 22 -152 56 -159
50 -2 -3 -7 -33 -10 -67 -5 -43 -10 -59 -17 -52 -14 14 -47 14 -47 0 0 -5 -4
-7 -10 -4 -5 3 -10 -3 -10 -14 0 -11 -4 -23 -10 -26 -13 -8 -13 -82 -1 -90 6
-3 10 -13 10 -23 2 -52 2 -52 32 -31 15 10 29 19 32 19 2 0 7 -27 10 -59 7
-67 -32 -366 -57 -441 l-16 -45 5 40 c3 22 8 64 12 94 l6 54 -29 -6 c-19 -3
-35 0 -46 10 -15 13 -19 13 -36 -4 -40 -38 -29 -93 18 -93 32 0 31 -17 0 -24
-21 -4 -37 -17 -51 -41 -12 -19 -23 -35 -25 -35 -3 0 -4 24 -3 53 4 128 -8
143 -21 25 -6 -54 -5 -83 6 -115 11 -33 12 -48 3 -64 -8 -15 -14 -18 -22 -10
-6 6 -21 11 -34 11 -27 0 -31 -30 -8 -70 8 -14 14 -40 15 -57 0 -34 14 -44 24
-18 3 8 15 15 26 15 11 0 20 6 20 14 0 8 5 18 11 21 20 13 8 -107 -13 -132
-12 -12 -18 -31 -16 -45 l4 -23 13 27 c12 23 16 25 37 16 13 -6 25 -20 27 -32
3 -20 4 -20 12 -2 5 11 3 32 -3 50 -7 18 -12 43 -12 57 0 22 2 21 21 -11 12
-19 38 -53 58 -75 l37 -40 24 22 c13 12 37 27 54 33 17 7 40 16 51 22 10 6 38
12 61 12 32 2 49 9 74 35 34 34 39 34 45 4 2 -10 4 -18 5 -18 2 0 10 -42 12
-66 1 -9 8 -15 14 -12 14 5 23 -35 12 -57 -3 -8 -14 -46 -23 -84 -13 -57 -24
-77 -60 -115 -25 -25 -45 -52 -45 -58 0 -7 -4 -13 -10 -13 -5 0 8 -36 30 -80
21 -45 47 -116 57 -158 11 -49 26 -84 39 -97 28 -26 37 -67 20 -90 -12 -16
-14 -15 -22 16 -7 26 -9 3 -11 -96 -2 -71 -5 -135 -8 -142 -3 -8 -36 -3 -117
18 -141 37 -199 59 -196 73 2 6 -4 19 -12 27 -13 15 -16 14 -25 -5 -9 -17 -19
-20 -50 -18 -66 6 -68 10 -61 152 4 69 10 153 14 188 5 34 7 97 5 140 -4 80
-4 119 -1 175 0 17 0 58 -2 90 -2 54 -4 57 -19 42 -10 -10 -12 -18 -6 -23 14
-10 12 -36 -3 -54 -6 -8 -9 -18 -5 -21 3 -4 -1 -7 -10 -7 -13 0 -17 -9 -17
-40 0 -32 3 -38 16 -33 13 5 15 2 9 -15 -4 -15 -2 -22 6 -22 8 0 5 -6 -5 -13
-16 -12 -19 -30 -20 -134 0 -67 2 -116 6 -110 4 7 8 8 9 2 3 -31 1 -296 -2
-299 -3 -3 -80 13 -147 30 -10 3 -12 21 -9 71 3 38 6 73 8 78 2 6 0 37 -4 70
-4 33 -10 85 -14 115 -3 30 -6 63 -7 73 0 9 -5 17 -11 17 -6 0 -9 20 -7 50 2
28 0 56 -5 63 -5 7 -10 28 -12 47 -2 19 -8 38 -13 41 -6 4 -8 15 -4 24 3 10
-4 36 -19 64 -13 25 -24 55 -23 67 3 27 -40 94 -59 94 -12 0 -14 -8 -10 -35 4
-24 2 -35 -6 -35 -16 1 -58 68 -61 99 -2 13 -10 30 -20 36 -9 7 -16 15 -16 19
0 13 28 36 45 36 14 0 13 3 -2 27 -10 15 -12 24 -5 20 6 -5 12 -4 12 2 0 6 -7
11 -16 11 -9 0 -13 5 -9 13 4 6 -1 3 -9 -7 -13 -16 -19 -17 -28 -8 -18 18 -58
15 -65 -5 -11 -30 -35 -43 -51 -27 -7 8 -16 14 -20 14 -4 0 -22 -27 -41 -59
-19 -33 -43 -62 -53 -65 -14 -3 -18 0 -14 10 3 8 -1 14 -9 14 -23 0 -18 13 19
48 23 21 33 38 29 51 -3 10 0 22 6 25 7 5 7 15 -1 32 -9 20 -9 27 2 34 7 5 15
19 17 32 5 34 11 48 22 48 5 0 11 -7 13 -15 3 -13 6 -13 30 -1 23 12 29 12 39
0 6 -8 16 -14 21 -14 16 0 41 -31 44 -54 1 -11 3 -23 3 -25 1 -3 12 6 25 18
26 24 25 52 -2 83 -11 14 -18 15 -29 7 -10 -9 -12 -6 -7 18 5 24 1 34 -20 50
-14 12 -26 26 -26 33 0 6 -13 22 -30 36 -16 14 -27 30 -25 37 3 7 -13 22 -35
35 -22 12 -40 27 -40 32 0 6 -6 10 -13 10 -8 0 -39 18 -70 40 -33 22 -63 37
-72 34 -8 -4 -15 -1 -15 6 0 17 -22 36 -53 44 -15 3 -27 13 -27 22 0 9 3 14 8
12 4 -2 29 -14 57 -27 27 -12 52 -25 55 -29 13 -19 90 -72 103 -72 8 0 36 -17
63 -39 59 -46 93 -65 102 -56 23 22 4 483 -22 535 -9 19 -18 24 -40 22 -28 -3
-116 33 -116 48 0 5 -9 12 -21 15 -11 4 -18 13 -15 20 6 15 -72 30 -105 20
-15 -5 -19 -4 -15 4 4 6 0 11 -11 11 -10 0 -36 3 -58 6 l-40 5 30 -16 c17 -8
22 -13 12 -10 -10 3 -25 5 -33 5 -8 0 -14 6 -14 14 0 9 -20 19 -52 27 -29 6
-88 25 -132 41 -43 16 -80 27 -83 25 -2 -3 39 -20 91 -38 52 -19 90 -37 84
-40 -6 -4 -16 -5 -22 -3 -24 9 -96 10 -96 1 0 -5 -13 -6 -28 -2 -20 4 -33 1
-41 -9 -7 -8 -18 -13 -24 -10 -7 2 -28 6 -47 8 -19 2 -38 4 -42 5 -4 0 -5 9
-3 19 4 24 -21 56 -39 49 -9 -4 -15 -3 -14 1 1 4 -2 15 -6 25 -9 18 -36 24
-36 7 0 -5 5 -10 10 -10 6 0 10 -5 10 -12 0 -6 -10 -2 -22 9 -13 11 -28 19
-35 16 -16 -6 -24 10 -28 57 -3 31 0 42 15 53 11 8 17 18 12 23 -4 5 2 1 14
-9 12 -10 28 -15 38 -11 15 6 21 -5 17 -29 -1 -5 3 -6 8 -3 5 4 12 2 15 -3 9
-14 147 -93 153 -88 3 3 -12 15 -34 26 -58 30 -103 66 -129 105 -76 112 31
209 291 265 191 41 356 56 645 56 284 0 404 -10 669 -56 62 -11 115 -18 118
-16 2 3 -11 8 -29 12 -22 5 -27 9 -15 12 9 2 17 11 17 19 0 8 7 14 15 14 9 0
12 -6 8 -17 -5 -15 -3 -15 13 2 20 21 54 30 54 14 0 -5 7 -9 15 -9 8 0 15 5
15 10 0 6 -4 10 -10 10 -5 0 -10 7 -10 16 0 14 1 14 16 0 14 -15 74 -23 74
-11 0 3 -7 21 -14 40 -23 55 0 41 30 -19 24 -48 30 -53 49 -46 13 5 41 4 65
-1 33 -8 45 -7 52 3 7 10 11 9 22 -5 10 -12 15 -14 18 -6 3 9 12 8 36 -4 18
-8 32 -12 32 -8 0 8 -268 130 -316 145 -11 3 -27 18 -34 31 l-13 25 -753 0
c-744 0 -753 0 -759 -20 -3 -11 -13 -20 -21 -20 -8 0 -17 -6 -20 -14 -3 -8
-13 -13 -22 -11 -9 1 -22 -2 -29 -7 -19 -15 -53 13 -53 44 l0 28 -132 0 c-141
0 -155 -8 -56 -34 31 -8 66 -19 77 -25 11 -6 29 -11 40 -11 18 0 18 -3 9 -37
-15 -56 -46 -113 -61 -113 -17 0 -147 44 -175 59 -12 6 -34 12 -49 13 -15 2
-52 17 -82 35 -30 18 -61 33 -68 33 -8 0 -33 8 -56 19 -147 66 -120 61 -371
60 -127 -1 -220 -4 -207 -6 31 -6 129 -71 206 -136 22 -19 66 -50 98 -70 31
-20 57 -39 57 -41 0 -3 -15 0 -32 5 -51 14 -88 11 -95 -8 -4 -10 -11 -21 -17
-25 -7 -5 -9 -39 -6 -95 2 -48 4 -133 5 -188 0 -76 4 -103 15 -113 13 -11 13
-14 1 -19 -8 -3 -30 -23 -50 -44 -20 -21 -56 -49 -81 -62 -38 -21 -170 -75
-220 -90 -25 -7 -89 21 -125 55 l-35 33 -1 115 c-1 63 3 126 8 140 16 41 46
348 39 404 -5 38 -3 56 8 71 9 11 16 28 16 38 0 10 10 22 23 27 17 7 9 9 -35
9 -57 1 -57 1 -62 -31z m1028 -504 c3 -9 4 -20 0 -25 -3 -5 0 -9 5 -9 6 0 11
-5 11 -11 0 -8 -5 -8 -15 1 -8 7 -15 21 -15 30 0 10 -8 21 -17 23 -14 4 -13 5
3 6 12 0 25 -6 28 -15z m-33 -37 c-10 -9 -11 -8 -5 6 3 10 9 15 12 12 3 -3 0
-11 -7 -18z m1886 -319 c-3 -8 -6 -5 -6 6 -1 11 2 17 5 13 3 -3 4 -12 1 -19z
m-1817 -79 c0 -5 -4 -9 -10 -9 -5 0 -10 7 -10 16 0 8 5 12 10 9 6 -3 10 -10
10 -16z m2012 -28 c-12 -7 -12 -12 -1 -29 12 -20 15 -20 31 -5 17 15 18 15 18
0 0 -9 12 -24 26 -34 51 -33 81 -70 72 -87 -7 -12 -5 -16 7 -16 9 0 13 4 10
10 -3 5 0 8 7 5 14 -6 19 -95 6 -95 -5 0 -8 -5 -8 -11 0 -5 4 -8 9 -5 13 9 20
-16 9 -36 -6 -14 -5 -16 7 -12 19 8 19 -10 0 -30 -8 -8 -12 -21 -9 -29 3 -8
-3 -22 -13 -32 -9 -10 -17 -27 -18 -39 0 -16 -7 -22 -34 -24 -31 -3 -61 -21
-61 -37 0 -4 -6 -13 -14 -21 -8 -7 -24 -26 -35 -41 -21 -25 -22 -26 -36 -7
-14 19 -28 56 -39 105 -3 14 -17 31 -31 39 -14 7 -25 22 -25 31 0 15 6 17 30
13 30 -6 30 -6 23 27 -4 19 -7 53 -7 76 -1 23 -3 39 -5 37 -3 -2 -11 10 -19
28 -8 18 -16 27 -19 21 -10 -28 -18 -10 -15 33 3 27 10 48 18 51 8 3 14 12 14
20 0 8 8 13 18 11 12 -2 18 5 20 22 4 24 48 70 67 70 6 0 4 -4 -3 -9z m-4442
-47 c0 -8 -4 -12 -10 -9 -5 3 -10 10 -10 16 0 5 5 9 10 9 6 0 10 -7 10 -16z
m1925 6 c3 -5 -1 -10 -9 -10 -9 0 -16 5 -16 10 0 6 4 10 9 10 6 0 13 -4 16
-10z m-68 -26 c-3 -3 -12 -4 -19 -1 -8 3 -5 6 6 6 11 1 17 -2 13 -5z m1207
-61 c4 -4 17 -8 28 -8 26 0 35 -20 13 -29 -16 -6 -64 21 -65 37 0 9 14 9 24 0z
m-3474 -37 c0 -3 -4 -8 -10 -11 -5 -3 -10 -1 -10 4 0 6 5 11 10 11 6 0 10 -2
10 -4z m225 -6 c-3 -5 -2 -10 3 -10 6 0 5 -10 -1 -25 -15 -31 -26 -32 -23 -2
2 24 13 47 22 47 3 0 2 -4 -1 -10z m-1750 -40 c3 -5 -1 -10 -10 -10 -9 0 -13
5 -10 10 3 6 8 10 10 10 2 0 7 -4 10 -10z m1785 1 c0 -6 -4 -12 -8 -15 -5 -3
-9 1 -9 9 0 8 4 15 9 15 4 0 8 -4 8 -9z m-1740 -41 c0 -11 0 -23 1 -27 0 -4
-5 -9 -12 -12 -6 -2 -9 1 -5 7 3 6 1 12 -5 14 -12 4 -1 38 12 38 5 0 9 -9 9
-20z m57 -35 c1 -37 -20 -65 -32 -44 -4 6 -2 15 5 19 7 4 10 15 6 25 -3 9 -4
21 0 26 11 19 20 8 21 -26z m6170 -35 c-2 -40 -17 -58 -17 -20 0 12 -7 20 -17
20 -14 0 -14 2 2 20 26 29 33 25 32 -20z m-6220 -12 c-3 -8 -6 -5 -6 6 -1 11
2 17 5 13 3 -3 4 -12 1 -19z m-7 -53 c0 -8 -4 -15 -9 -15 -13 0 -22 16 -14 24
11 11 23 6 23 -9z m618 -15 c3 -21 2 -22 -12 -11 -19 16 -21 44 -3 39 6 -3 14
-15 15 -28z m1320 13 c5 -18 -54 -17 -61 1 -4 11 2 14 25 13 17 -1 33 -8 36
-14z m-1936 -42 c-11 -20 -19 -26 -24 -18 -4 7 -8 15 -8 18 0 5 30 23 47 28 1
1 -6 -12 -15 -28z m1910 -43 c-5 -33 19 -47 45 -27 15 12 16 12 10 -4 -5 -14
-2 -16 18 -11 15 4 25 2 25 -5 0 -6 -6 -11 -14 -11 -22 0 -28 -30 -8 -37 9 -4
19 -9 22 -12 3 -3 25 -23 49 -45 43 -38 44 -40 46 -107 1 -49 -3 -74 -16 -90
-17 -23 -39 -19 -39 6 0 9 -8 14 -21 12 -12 -1 -24 4 -26 11 -3 6 2 12 11 12
9 0 16 8 16 20 0 11 5 20 10 20 27 0 4 32 -43 59 -29 17 -64 40 -77 51 -15 13
-34 20 -47 17 -24 -4 -25 -2 -27 78 -1 25 -6 31 -28 33 -30 4 -35 -7 -18 -38
13 -24 -9 -40 -22 -16 -6 12 -14 14 -25 7 -22 -12 -40 7 -44 45 -5 41 6 52 47
51 28 -1 42 5 58 24 l21 25 40 -20 c36 -18 40 -24 37 -48z m78 42 c14 -26 3
-45 -16 -29 -16 13 -19 49 -4 49 5 0 14 -9 20 -20z m-1428 -42 c-7 -7 -12 -8
-12 -2 0 14 12 26 19 19 2 -3 -1 -11 -7 -17z m78 -12 c0 -8 7 -16 15 -20 21
-8 19 -36 -2 -36 -19 0 -46 46 -37 61 8 14 24 10 24 -5z m1026 -12 c-5 -13 55
-84 72 -84 27 0 42 -99 18 -120 -8 -6 -16 -23 -18 -37 -6 -49 -25 -34 -50 39
-25 76 -45 89 -40 27 4 -44 -15 -63 -42 -44 -13 10 -17 21 -12 39 5 19 0 29
-22 45 l-27 20 23 23 c18 18 24 20 31 9 5 -7 14 -10 20 -6 7 4 19 1 28 -7 15
-11 16 -11 8 7 -5 11 -10 41 -13 68 -3 41 -2 46 13 41 9 -4 14 -12 11 -20z
m-556 -59 c0 -8 -2 -15 -5 -15 -10 0 -43 38 -38 44 9 9 43 -14 43 -29z m464 4
c-11 -18 -44 -9 -44 11 0 17 3 18 25 8 13 -6 22 -15 19 -19z m3846 -11 c0 -18
-2 -20 -9 -8 -6 8 -7 18 -5 22 9 14 14 9 14 -14z m550 9 c0 -18 -27 -53 -34
-46 -9 9 11 59 24 59 5 0 10 -6 10 -13z m-5501 -29 c-9 -17 -13 -18 -20 -7
-15 24 -10 37 11 32 16 -4 18 -9 9 -25z m-114 -48 c-9 -15 -65 -8 -65 7 0 9 9
12 28 8 15 -3 21 -2 15 1 -7 3 -13 15 -13 26 0 19 2 19 21 -6 11 -14 17 -30
14 -36z m-376 6 c-1 -17 -3 -23 -6 -13 -2 9 -8 17 -13 17 -4 0 -10 8 -13 19
-3 14 0 17 14 14 14 -4 19 -14 18 -37z m691 37 c0 -14 -66 -83 -80 -83 -13 0
3 30 38 71 16 19 42 26 42 12z m463 -14 c16 2 17 -1 8 -18 -7 -11 -20 -25 -31
-31 -17 -9 -20 -8 -20 10 0 11 -8 24 -17 27 -15 6 -14 7 3 13 10 4 24 5 29 1
6 -3 18 -4 28 -2z m3717 -4 c0 -17 -2 -18 -25 -9 -13 5 -14 8 -3 15 19 13 28
11 28 -6z m-4583 -9 c0 -8 -8 -11 -19 -8 -10 2 -18 8 -18 13 0 5 8 9 18 9 10
0 19 -6 19 -14z m4663 -3 c-1 -20 -18 -29 -52 -29 -21 0 -38 3 -38 7 0 12 27
18 51 12 15 -4 20 -3 15 5 -4 7 -1 12 8 12 9 0 16 -3 16 -7z m-4450 -13 c0 -5
-4 -10 -10 -10 -5 0 -10 5 -10 10 0 6 5 10 10 10 6 0 10 -4 10 -10z m4350 0
c0 -5 -9 -10 -21 -10 -11 0 -17 5 -14 10 3 6 13 10 21 10 8 0 14 -4 14 -10z
m-2973 -27 c-9 -9 -19 -14 -23 -11 -10 10 6 28 24 28 15 0 15 -1 -1 -17z
m3038 -13 c-3 -5 -12 -10 -18 -10 -7 0 -6 4 3 10 19 12 23 12 15 0z m-4334
-23 c-10 -9 -11 -8 -5 6 3 10 9 15 12 12 3 -3 0 -11 -7 -18z m309 13 c0 -5 -9
-10 -20 -10 -11 0 -20 5 -20 10 0 6 9 10 20 10 11 0 20 -4 20 -10z m60 -20 c6
-11 17 -20 25 -20 7 0 17 -4 20 -10 10 -16 -59 2 -72 19 -17 21 -16 31 2 31 8
0 19 -9 25 -20z m85 -60 c3 -5 1 -10 -4 -10 -6 0 -11 5 -11 10 0 6 2 10 4 10
3 0 8 -4 11 -10z m4180 -30 c3 -5 -1 -10 -10 -10 -9 0 -13 5 -10 10 3 6 8 10
10 10 2 0 7 -4 10 -10z m-3895 -14 c0 -3 -4 -8 -10 -11 -5 -3 -10 -1 -10 4 0
6 5 11 10 11 6 0 10 -2 10 -4z m-1065 -46 c3 -5 1 -10 -4 -10 -6 0 -11 5 -11
10 0 6 2 10 4 10 3 0 8 -4 11 -10z m573 -11 c10 -14 10 -18 -3 -23 -11 -4 -15
1 -15 21 0 14 1 24 3 22 1 -2 8 -11 15 -20z m-518 -19 c0 -36 -13 -39 -28 -6
-9 21 -8 25 6 29 9 3 18 5 20 6 1 0 2 -12 2 -29z m707 24 c-3 -3 -12 -4 -19
-1 -8 3 -5 6 6 6 11 1 17 -2 13 -5z m1033 -39 c0 -8 -4 -15 -10 -15 -5 0 -10
7 -10 15 0 8 5 15 10 15 6 0 10 -7 10 -15z m-1245 -15 c-3 -5 1 -10 9 -10 9 0
16 -5 16 -12 0 -6 8 -20 17 -30 9 -10 18 -37 19 -59 2 -49 8 -56 31 -38 9 8
14 9 10 2 -4 -6 -2 -13 5 -15 16 -6 1 -28 -19 -28 -23 0 -58 50 -59 84 0 16
-6 32 -12 34 -8 2 -10 -3 -5 -15 6 -16 5 -17 -11 -4 -12 10 -16 24 -14 43 3
15 0 29 -6 31 -12 4 1 27 15 27 6 0 7 -4 4 -10z m445 -60 c0 -5 -4 -10 -9 -10
-6 0 -13 5 -16 10 -3 6 1 10 9 10 9 0 16 -4 16 -10z m4398 -67 c11 -34 2 -97
-17 -116 -7 -7 -9 6 -6 42 2 29 -1 68 -6 87 -6 19 -7 40 -3 46 8 12 10 8 32
-59z m-5202 -8 l-11 -24 -6 22 c-8 31 0 50 16 37 10 -8 10 -16 1 -35z m84 20
c0 -9 -6 -12 -15 -9 -8 4 -15 10 -15 15 0 5 7 9 15 9 8 0 15 -7 15 -15z m-53
-51 c-3 -3 -12 -4 -19 -1 -8 3 -5 6 6 6 11 1 17 -2 13 -5z m3001 -50 c-4 -3
-12 5 -18 18 -12 22 -12 22 6 6 10 -10 15 -20 12 -24z m-2278 -44 c0 -5 -2
-10 -4 -10 -3 0 -8 5 -11 10 -3 6 -1 10 4 10 6 0 11 -4 11 -10z m-614 -17 c11
-12 13 -18 5 -21 -13 -4 -41 16 -41 29 0 14 17 10 36 -8z m5364 7 c0 -5 -4
-10 -10 -10 -5 0 -10 5 -10 10 0 6 5 10 10 10 6 0 10 -4 10 -10z m-2615 -11
c11 -17 -1 -21 -15 -4 -8 9 -8 15 -2 15 6 0 14 -5 17 -11z m-3168 -21 c-3 -8
-6 -5 -6 6 -1 11 2 17 5 13 3 -3 4 -12 1 -19z m347 7 c4 -10 -1 -15 -14 -15
-20 0 -26 11 -13 23 10 11 20 8 27 -8z m-344 -55 c0 -5 -4 -10 -10 -10 -5 0
-10 5 -10 10 0 6 5 10 10 10 6 0 10 -4 10 -10z m3105 -30 c3 -5 1 -10 -4 -10
-6 0 -11 5 -11 10 0 6 2 10 4 10 3 0 8 -4 11 -10z m2695 -20 c0 -5 -7 -10 -15
-10 -8 0 -15 5 -15 10 0 6 7 10 15 10 8 0 15 -4 15 -10z m-2720 -20 c12 -8 11
-10 -7 -10 -13 0 -23 5 -23 10 0 13 11 13 30 0z m-1910 -10 c0 -5 -5 -10 -11
-10 -5 0 -7 5 -4 10 3 6 8 10 11 10 2 0 4 -4 4 -10z m55 -60 c15 -29 13 -70
-4 -70 -12 0 -35 76 -27 89 10 16 14 14 31 -19z m-314 6 c5 3 9 1 9 -4 0 -6
-7 -12 -15 -16 -11 -4 -15 1 -14 17 0 12 3 16 6 9 2 -6 9 -10 14 -6z m1079 10
c0 -3 -4 -8 -10 -11 -5 -3 -10 -1 -10 4 0 6 5 11 10 11 6 0 10 -2 10 -4z m-54
-29 c7 -19 -13 -67 -27 -67 -7 0 -9 3 -6 7 4 3 2 12 -4 20 -9 10 -8 13 2 13
11 0 11 2 -1 10 -11 7 -11 10 -2 10 7 0 10 5 7 10 -3 6 1 10 10 10 8 0 18 -6
21 -13z m-1026 -56 c0 -5 7 -17 16 -26 14 -13 19 -14 26 -3 7 10 11 9 23 -5 7
-11 11 -25 9 -32 -3 -7 -1 -16 5 -20 6 -3 15 5 21 19 12 33 32 33 56 0 10 -14
31 -39 46 -55 32 -37 52 -84 44 -104 -7 -19 -26 -20 -26 0 0 8 -9 15 -20 15
-14 0 -22 11 -31 40 -8 28 -19 42 -38 48 -24 8 -26 7 -28 -19 -1 -16 2 -31 7
-34 15 -9 12 -25 -5 -25 -9 0 -20 11 -25 24 -13 34 -24 38 -57 19 -17 -9 -37
-14 -47 -10 -17 7 -17 9 -3 30 8 12 20 21 26 20 7 -2 8 5 2 20 -4 12 -6 28 -4
35 3 7 -5 12 -20 12 -32 0 -102 29 -71 30 11 0 29 7 40 15 21 16 54 20 54 6z
m-925 -53 c18 -18 18 -20 2 -15 -11 4 -20 1 -23 -8 -7 -17 -34 -21 -34 -5 0
19 -42 10 -47 -10 -6 -21 -37 -27 -48 -10 -3 5 2 26 11 46 l17 36 51 -6 c32
-5 58 -15 71 -28z m1985 -7 c0 -10 -28 -41 -36 -41 -9 0 1 35 11 42 14 11 25
10 25 -1z m-2134 -79 c-4 -3 -14 2 -24 12 -16 18 -16 18 6 6 13 -6 21 -14 18
-18z m34 -92 c0 -5 -7 -10 -15 -10 -8 0 -15 5 -15 10 0 6 7 10 15 10 8 0 15
-4 15 -10z m1185 -19 c3 -5 1 -12 -5 -16 -5 -3 -10 1 -10 9 0 18 6 21 15 7z
m55 -1 c0 -5 -7 -10 -16 -10 -8 0 -12 5 -9 10 3 6 10 10 16 10 5 0 9 -4 9 -10z
m1460 -20 c0 -5 -2 -10 -4 -10 -3 0 -8 5 -11 10 -3 6 -1 10 4 10 6 0 11 -4 11
-10z m-2080 -30 c0 -5 -4 -10 -9 -10 -6 0 -13 5 -16 10 -3 6 1 10 9 10 9 0 16
-4 16 -10z m240 -11 c0 -5 -4 -9 -10 -9 -5 0 -10 7 -10 16 0 8 5 12 10 9 6 -3
10 -10 10 -16z m1868 9 c-2 -6 -10 -13 -16 -14 -7 -1 -8 0 -2 3 5 2 8 9 4 14
-3 5 0 9 6 9 7 0 10 -5 8 -12z m-2673 -88 c3 -5 -1 -10 -10 -10 -9 0 -13 5
-10 10 3 6 8 10 10 10 2 0 7 -4 10 -10z m5422 -151 c19 -62 10 -191 -17 -237
-12 -19 -19 -40 -17 -46 3 -6 -2 -17 -9 -24 -10 -9 -14 -10 -14 -1 0 6 -8 18
-17 26 -10 8 -12 12 -5 8 7 -3 12 0 12 8 0 11 -7 13 -22 9 -21 -5 -20 -3 7 22
17 16 23 25 13 22 -13 -4 -15 -1 -11 11 4 10 2 14 -4 10 -7 -5 -14 9 -19 35
-9 51 -7 68 13 90 14 16 21 36 22 70 1 11 6 15 16 12 14 -6 20 6 16 29 -1 5 4
7 10 5 7 -2 18 -24 26 -49z m237 -369 c4 -47 10 -95 13 -107 5 -20 3 -21 -29
-13 -18 4 -45 11 -60 14 -21 5 -28 12 -28 31 0 35 28 112 57 159 23 36 27 38
33 21 4 -11 10 -58 14 -105z m-4091 54 c9 -4 17 -10 17 -14 0 -12 -38 -23 -50
-15 -15 9 -13 48 3 41 6 -3 20 -9 30 -12z m3934 -181 c-2 -66 1 -87 11 -85 6
1 12 -3 12 -9 0 -6 -6 -9 -14 -6 -10 4 -14 -16 -19 -93 -5 -105 -13 -134 -29
-106 -5 9 -5 23 1 35 6 10 13 77 16 147 5 122 13 204 20 204 2 0 2 -39 2 -87z
m-153 35 c-5 -8 -2 -9 9 -5 50 19 32 -119 -23 -168 -28 -26 -62 -29 -77 -8
-19 25 -17 28 30 75 42 42 50 68 21 68 -17 0 -17 5 -2 30 7 11 21 20 31 20 11
0 15 -4 11 -12z m197 -95 c-10 -17 -10 -17 -11 2 0 11 4 31 8 45 l7 25 3 -27
c2 -15 -1 -35 -7 -45z m12 -70 c10 -77 -27 -291 -55 -318 -7 -7 -8 -4 -4 10
37 126 48 195 43 273 -6 87 6 114 16 35z m-2720 -93 c4 -60 3 -89 -3 -80 -5 8
-10 33 -11 55 -1 28 -3 32 -6 15 -3 -14 -11 -32 -19 -41 -8 -8 -22 -40 -33
-71 -20 -60 -48 -118 -57 -118 -2 0 0 10 7 21 18 34 59 161 59 182 0 16 52
139 56 133 1 0 4 -44 7 -96z m-307 12 c-18 -16 -18 -16 -6 6 6 13 14 21 18 18
3 -4 -2 -14 -12 -24z m4194 -12 c8 -5 11 -10 5 -10 -5 0 -17 5 -25 10 -8 5
-10 10 -5 10 6 0 17 -5 25 -10z m-3980 -10 c0 -5 -4 -10 -10 -10 -5 0 -10 5
-10 10 0 6 5 10 10 10 6 0 10 -4 10 -10z m2730 -94 c12 -120 11 -176 -5 -263
-9 -54 -22 -102 -27 -108 -7 -7 -8 -3 -5 10 19 67 33 200 29 270 -4 59 -7 71
-11 46 -3 -19 -12 -36 -19 -39 -9 -3 -10 2 -2 22 5 15 9 30 9 34 -4 26 3 41
16 36 8 -4 15 -7 15 -8z m-2802 -18 c7 -7 12 -19 12 -27 0 -11 -3 -11 -13 4
-19 25 -64 13 -79 -21 -11 -23 -9 -29 11 -45 33 -27 58 -24 75 9 8 15 15 23
16 19 0 -13 -22 -51 -34 -59 -34 -23 -86 8 -86 52 0 29 15 52 45 68 26 15 38
15 53 0z m2761 -162 c-9 -8 -10 -5 -5 14 3 14 7 34 7 45 1 11 4 5 6 -14 3 -19
-1 -39 -8 -45z m-2819 -8 c10 -6 6 -7 -15 -3 -16 4 -34 11 -40 17 -12 12 31 1
55 -14z m-21 -41 c-2 -2 -17 -11 -34 -21 l-30 -17 24 20 c13 12 28 21 34 21 6
0 8 -1 6 -3z m-205 -62 c-34 -7 -81 -23 -105 -34 -34 -16 -38 -17 -20 -4 30
23 118 52 156 52 18 -1 6 -6 -31 -14z m263 -11 c-3 -3 -12 -4 -19 -1 -8 3 -5
6 6 6 11 1 17 -2 13 -5z m-487 -76 c-14 -6 -43 -19 -64 -29 -31 -14 -36 -15
-24 -3 8 8 33 22 54 29 46 17 70 18 34 3z m-1151 -29 c96 -11 176 -21 178 -23
5 -5 -111 -25 -182 -30 -33 -3 -107 -10 -164 -16 -132 -14 -172 -8 -194 30 -9
15 -17 38 -17 50 0 22 1 22 103 15 56 -3 180 -15 276 -26z m987 -39 c43 -17
23 -21 -26 -5 -27 8 -36 14 -23 14 12 1 34 -4 49 -9z m-176 -110 c0 -5 -5 -10
-11 -10 -5 0 -7 5 -4 10 3 6 8 10 11 10 2 0 4 -4 4 -10z m-1207 -354 c11 -11
17 -12 26 -3 8 8 11 7 11 -5 0 -9 -8 -14 -17 -13 -34 3 -73 17 -73 26 0 14 37
10 53 -5z m-145 -146 c10 -1 28 -7 42 -15 l25 -14 -25 -1 c-29 0 -70 25 -69
43 0 9 2 9 6 0 2 -7 12 -13 21 -13z m1827 -258 c-6 -5 -30 -24 -55 -42 -25
-19 -83 -66 -130 -106 -89 -75 -125 -97 -141 -92 -12 4 223 189 285 224 42 24
57 30 41 16z m2046 -44 c1 -7 1 -17 0 -23 -1 -5 5 -2 12 8 16 19 27 22 27 6 0
-14 -29 -43 -37 -36 -3 3 -16 1 -30 -4 -20 -7 -30 -6 -46 8 -20 17 -20 17 -13
-2 6 -16 5 -18 -6 -7 -10 10 -7 17 17 37 32 26 74 33 76 13z m3724 -148 c-3
-5 -12 -10 -18 -10 -7 0 -6 4 3 10 19 12 23 12 15 0z m331 -36 c19 -15 19 -15
-1 -6 -11 5 -26 7 -34 4 -8 -3 -11 0 -7 7 10 15 19 14 42 -5z m-2366 -14 c0
-5 -9 -10 -21 -10 -13 0 -23 -8 -26 -20 -4 -16 -11 -19 -27 -14 -31 9 -44 24
-20 24 10 0 28 7 38 15 23 17 56 20 56 5z m2910 -24 c0 -11 -19 -15 -25 -6 -3
5 1 10 9 10 9 0 16 -2 16 -4z m-3012 -46 c11 -18 10 -20 -9 -20 -23 0 -52 -24
-41 -35 4 -4 3 -6 -3 -5 -21 5 -27 -1 -16 -14 10 -11 8 -16 -9 -21 -12 -4 -24
-5 -27 -2 -9 10 70 117 86 117 4 0 12 -9 19 -20z m3012 6 c0 -11 -19 -15 -25
-6 -3 5 1 10 9 10 9 0 16 -2 16 -4z m-116 -21 c-4 -8 -16 -15 -27 -15 -20 0
-20 0 -1 15 25 19 35 19 28 0z m56 5 c0 -5 -7 -10 -15 -10 -8 0 -15 5 -15 10
0 6 7 10 15 10 8 0 15 -4 15 -10z m-2945 -30 c-3 -5 -12 -10 -18 -10 -7 0 -6
4 3 10 19 12 23 12 15 0z m3295 3 c0 -17 -18 -35 -29 -29 -8 5 -7 11 2 21 13
16 27 19 27 8z m-50 -18 c0 -8 -4 -15 -9 -15 -13 0 -22 16 -14 24 11 11 23 6
23 -9z m-1750 -164 c0 -9 -62 -118 -79 -137 -5 -6 -19 -31 -32 -55 -19 -37
-19 -42 -4 -29 17 14 17 14 6 -8 -7 -12 -15 -20 -20 -18 -4 3 -7 -5 -7 -17 1
-13 -4 -21 -11 -19 -16 3 -17 -15 -2 -20 13 -4 -23 -48 -40 -48 -6 0 -11 -5
-11 -10 0 -16 -69 -45 -79 -34 -5 5 -12 25 -16 45 -5 29 -2 41 19 66 28 34 35
53 11 33 -12 -10 -16 -8 -23 10 -7 20 -10 21 -15 7 -12 -32 -29 -18 -25 21 2
20 5 39 8 42 16 15 39 60 31 60 -12 0 -63 -67 -79 -104 -7 -16 -15 -26 -18
-24 -8 9 26 77 56 112 17 19 52 47 78 62 85 50 252 93 252 65z m-840 -32 c19
-6 46 -19 60 -28 54 -36 79 -44 92 -33 8 6 26 9 42 8 20 -3 30 1 33 13 2 9 18
24 34 33 44 26 67 8 67 -50 0 -51 -16 -62 -56 -37 -15 10 -21 12 -14 4 20 -21
14 -29 -20 -29 -29 -1 -31 -2 -16 -14 20 -15 5 -38 -18 -29 -10 3 -12 0 -8
-10 4 -11 -5 -18 -33 -27 -21 -7 -42 -17 -48 -23 -7 -7 -5 -8 6 -4 9 3 37 9
63 12 52 8 77 -4 69 -34 -3 -10 0 -22 6 -25 23 -15 10 -27 -21 -21 -26 6 -30
5 -25 -8 5 -13 -4 -17 -39 -23 -31 -4 -44 -10 -40 -19 7 -20 -22 -39 -62 -42
-25 -1 -31 1 -21 7 11 7 11 14 3 27 -13 20 -40 24 -37 6 2 -7 -9 -16 -24 -19
-33 -9 -55 -31 -72 -73 -9 -20 -17 -28 -21 -21 -6 10 -19 -6 -24 -30 -4 -18
-41 -60 -52 -60 -23 0 -16 27 12 49 16 13 21 21 12 21 -8 0 -19 -5 -26 -12 -7
-7 -12 -10 -13 -7 -10 55 -11 54 53 87 39 20 68 42 75 58 10 22 10 25 -3 20
-7 -3 -14 -1 -14 4 0 10 14 14 36 11 7 -1 14 5 18 14 3 8 12 15 20 15 7 0 16
7 20 15 6 17 36 21 36 5 0 -14 27 -13 36 2 4 6 2 14 -4 16 -7 2 -12 10 -12 18
0 17 -49 15 -68 -3 -17 -17 -82 -17 -82 0 0 9 -3 8 -9 -2 -5 -7 -13 -11 -18
-8 -5 3 -21 0 -36 -8 -15 -8 -27 -12 -27 -9 0 3 -6 2 -12 -3 -7 -4 -21 -9 -32
-10 -15 -3 -16 -1 -7 11 9 11 8 15 -5 20 -10 4 -26 -5 -44 -24 -15 -16 -35
-30 -43 -30 -9 0 -24 -13 -34 -30 -9 -16 -21 -30 -25 -30 -4 0 -8 -7 -8 -15 0
-9 -7 -18 -15 -21 -8 -4 -12 -10 -9 -16 3 -5 11 -4 20 2 7 7 19 10 26 7 9 -4
8 -6 -2 -6 -17 -1 -50 -35 -50 -51 0 -6 -4 -10 -10 -10 -13 0 -13 17 0 25 8 5
8 11 0 20 -6 7 -9 19 -7 26 2 8 -1 5 -6 -6 -5 -12 -27 -26 -49 -33 -22 -7 -48
-21 -60 -31 -11 -11 -39 -24 -62 -30 -23 -6 -60 -24 -82 -40 -29 -22 -165
-116 -212 -147 -2 -1 -1 -12 3 -23 5 -17 10 -19 32 -10 14 5 35 7 46 3 12 -4
23 -1 28 7 7 11 9 11 9 1 0 -7 -8 -15 -17 -18 -10 -3 -27 -10 -38 -14 -21 -9
-155 -22 -155 -15 0 2 -3 10 -6 19 -3 9 -1 16 6 16 6 0 18 7 26 15 13 12 13
15 2 15 -8 0 -19 -5 -26 -12 -6 -6 -15 -8 -19 -4 -4 4 1 12 11 18 15 8 16 12
5 19 -9 7 -5 8 13 3 15 -3 35 -1 45 6 16 10 16 10 -4 5 -13 -4 -29 -1 -37 7
-12 11 -12 15 1 31 13 14 13 17 2 17 -8 0 -23 -7 -33 -15 -26 -19 -42 -19 -26
0 10 13 9 15 -11 16 l-24 1 25 7 c17 5 21 9 12 15 -16 10 -6 26 17 26 9 0 26
7 37 16 10 8 13 13 7 9 -24 -12 -13 13 13 30 19 12 23 19 14 25 -15 9 62 65
104 76 15 3 32 16 39 28 16 29 92 96 142 126 22 13 62 41 88 62 90 70 230 139
362 179 66 20 147 19 205 -2z m-4738 -131 c-7 -7 -12 -8 -12 -2 0 14 12 26 19
19 2 -3 -1 -11 -7 -17z m5012 -23 c-4 -8 -11 -15 -16 -15 -6 0 -5 6 2 15 7 8
14 15 16 15 2 0 1 -7 -2 -15z m228 -17 c-7 -7 -12 -8 -12 -2 0 14 12 26 19 19
2 -3 -1 -11 -7 -17z m238 -118 c0 -9 -32 -30 -46 -30 -4 0 1 9 11 20 19 21 35
26 35 10z m-1066 -75 c-7 -16 -24 -21 -24 -6 0 8 7 13 27 20 1 1 0 -6 -3 -14z
m886 -21 c0 -8 -4 -12 -10 -9 -5 3 -10 13 -10 21 0 8 5 12 10 9 6 -3 10 -13
10 -21z m58 -3 c-14 -23 -28 -28 -28 -10 0 12 32 40 38 34 2 -2 -3 -12 -10
-24z m12 -35 c0 -8 -7 -16 -15 -20 -12 -4 -13 -2 -2 14 14 24 17 25 17 6z
m-520 -46 c0 -5 -2 -10 -4 -10 -3 0 -8 5 -11 10 -3 6 -1 10 4 10 6 0 11 -4 11
-10z m-540 -53 c-21 -19 -43 -15 -34 6 2 7 16 13 29 13 24 0 24 0 5 -19z m-83
-14 c-3 -3 -11 -2 -17 2 -9 6 -9 10 1 16 14 8 27 -7 16 -18z m-117 -3 c-8 -5
-17 -7 -19 -4 -3 3 1 9 9 14 8 5 17 7 19 4 3 -3 -1 -9 -9 -14z m300 0 c0 -5
-5 -10 -11 -10 -5 0 -7 5 -4 10 3 6 8 10 11 10 2 0 4 -4 4 -10z m130 -36 c0
-8 -5 -12 -10 -9 -6 4 -8 11 -5 16 9 14 15 11 15 -7z m-2863 -73 c21 -10 47
-29 58 -40 l19 -22 -24 9 c-14 5 -31 7 -37 5 -7 -3 -13 0 -13 6 0 6 -8 11 -17
12 -10 0 -31 16 -47 35 l-28 34 26 -9 c14 -6 42 -19 63 -30z m1969 -24 c-37
-41 -65 -53 -62 -29 2 9 13 18 24 20 12 2 27 12 32 23 6 10 17 19 24 19 8 0 0
-14 -18 -33z m49 -17 c-3 -5 -11 -10 -16 -10 -6 0 -7 5 -4 10 3 6 11 10 16 10
6 0 7 -4 4 -10z m-110 -70 c-3 -5 -11 -10 -16 -10 -6 0 -7 5 -4 10 3 6 11 10
16 10 6 0 7 -4 4 -10z m257 -30 c-12 -11 -30 -20 -42 -20 -11 0 -20 -7 -20
-15 0 -9 -8 -18 -17 -22 -10 -3 -25 -11 -33 -17 -8 -7 -33 -20 -55 -29 -31
-14 -36 -14 -21 -2 11 8 14 15 8 15 -22 0 -12 19 18 35 18 9 40 13 55 9 19 -5
25 -2 25 10 0 16 38 42 47 32 3 -3 12 1 20 9 8 8 19 15 26 15 6 0 1 -9 -11
-20z m-142 0 c0 -6 -12 -15 -27 -21 -16 -7 -38 -16 -50 -22 -13 -6 -26 -7 -30
-3 -4 4 3 9 15 13 12 3 22 10 22 15 0 5 -6 6 -12 2 -9 -5 -10 -4 -3 4 18 19
85 28 85 12z m65 0 c-3 -5 -12 -10 -18 -10 -7 0 -6 4 3 10 19 12 23 12 15 0z
m1351 -51 c-2 -23 -10 -47 -16 -53 -8 -8 -9 -6 -4 8 5 14 3 17 -7 14 -8 -2
-15 -14 -17 -26 -5 -31 -51 -120 -51 -99 -1 10 7 34 18 55 10 20 21 49 25 64
5 22 43 77 54 78 2 0 1 -19 -2 -41z m-5926 10 c0 -4 -7 -6 -15 -3 -8 4 -15 10
-15 15 0 4 7 6 15 3 8 -4 15 -10 15 -15z m-540 1 c0 -5 -4 -10 -10 -10 -5 0
-10 5 -10 10 0 6 5 10 10 10 6 0 10 -4 10 -10z m5220 -21 c0 -5 -5 -7 -10 -4
-6 4 -19 1 -28 -7 -15 -12 -16 -11 -3 5 15 19 41 23 41 6z m-85 -18 c-3 -6
-11 -8 -17 -5 -6 4 -5 9 3 15 16 10 23 4 14 -10z m1302 -73 c-3 -8 -6 -5 -6 6
-1 11 2 17 5 13 3 -3 4 -12 1 -19z m-1405 -10 c-7 -7 -12 -8 -12 -2 0 14 12
26 19 19 2 -3 -1 -11 -7 -17z m1509 -9 c13 -13 18 -27 14 -37 -3 -9 -11 -36
-18 -59 -8 -32 -17 -43 -36 -48 -14 -4 -34 -13 -43 -22 -10 -9 -25 -12 -36 -8
-11 3 -23 1 -27 -5 -5 -7 -12 -5 -21 7 -18 24 -17 26 6 53 11 12 17 26 15 30
-3 5 -1 10 3 12 4 1 23 24 41 51 36 53 67 61 102 26z m-4741 -17 c0 -13 -12
-22 -22 -16 -10 6 -1 24 13 24 5 0 9 -4 9 -8z m4463 -151 c-6 -3 -12 -13 -15
-21 -3 -10 -6 -8 -10 8 -4 15 -2 22 8 22 8 0 14 6 15 13 0 8 2 8 6 -2 3 -7 1
-16 -4 -20z m-6706 13 c-3 -3 -12 -4 -19 -1 -8 3 -5 6 6 6 11 1 17 -2 13 -5z
m1575 -9 c0 -5 -5 -10 -11 -11 -8 -2 -7 -1 0 3 8 4 7 8 -2 15 -11 8 -11 9 -1
6 8 -2 14 -8 14 -13z m5388 1 c0 -3 -4 -8 -10 -11 -5 -3 -10 -1 -10 4 0 6 5
11 10 11 6 0 10 -2 10 -4z m-6747 -33 c-7 -2 -19 -2 -25 0 -7 3 -2 5 12 5 14
0 19 -2 13 -5z m1450 -48 c-1 -5 -9 -14 -19 -20 -10 -5 -29 -20 -43 -33 l-26
-22 -11 26 c-6 14 -17 30 -25 35 -9 5 -10 9 -2 9 6 0 14 -4 17 -9 8 -13 57 -1
63 16 6 16 49 14 46 -2z m-205 -14 c11 -7 10 -10 -3 -15 -20 -7 -38 1 -30 15
7 11 16 11 33 0z m69 -73 c-3 -8 -6 -5 -6 6 -1 11 2 17 5 13 3 -3 4 -12 1 -19z
m148 -118 c3 -5 -3 -10 -15 -10 -12 0 -18 5 -15 10 3 6 10 10 15 10 5 0 12 -4
15 -10z m-1021 -77 c-6 -20 -32 -39 -41 -29 -3 2 6 16 18 30 26 29 31 29 23
-1z m4024 -593 c22 -29 23 -30 3 -41 -10 -7 -17 -19 -14 -26 3 -8 -2 -13 -14
-13 -10 0 -26 -9 -36 -20 -9 -11 -23 -17 -30 -14 -8 3 -24 -11 -40 -34 -27
-41 -26 -52 4 -52 21 0 39 -47 29 -75 -4 -11 -3 -30 3 -42 8 -18 5 -30 -14
-58 -13 -19 -27 -35 -31 -35 -5 0 -8 -6 -8 -14 0 -7 -15 -18 -32 -23 -20 -6
-32 -15 -30 -24 3 -10 -2 -9 -16 4 -35 32 -73 12 -40 -21 9 -9 8 -12 -4 -12
-9 0 -24 10 -33 23 -8 12 -18 21 -20 20 -14 -8 -23 0 -27 22 -3 13 0 26 5 28
6 2 -19 3 -56 2 -53 -1 -67 1 -67 13 0 12 -3 12 -17 1 -25 -20 18 40 51 70 14
14 26 33 26 43 0 11 4 17 9 14 5 -3 24 20 43 51 44 77 46 85 8 43 l-32 -35 24
44 c13 24 39 61 58 82 30 32 42 39 85 42 28 3 79 18 115 36 36 17 67 31 70 30
3 0 15 -13 28 -29z m36 11 c12 -13 14 -21 6 -26 -13 -8 -40 12 -40 31 0 20 14
17 34 -5z m6 -81 c0 -5 -7 -10 -16 -10 -8 0 -12 5 -9 10 3 6 10 10 16 10 5 0
9 -4 9 -10z m75 -60 c3 -5 1 -10 -4 -10 -6 0 -11 5 -11 10 0 6 2 10 4 10 3 0
8 -4 11 -10z m50 -90 c3 -5 1 -10 -4 -10 -6 0 -11 5 -11 10 0 6 2 10 4 10 3 0
8 -4 11 -10z m-10 -78 c-7 -7 -45 29 -45 41 0 6 11 0 25 -13 14 -13 23 -26 20
-28z m-780 -319 c-13 -73 -57 -132 -97 -133 -10 0 -18 -4 -18 -8 0 -5 -21 -9
-47 -10 -104 -2 -118 -4 -128 -18 -5 -8 -20 -16 -31 -18 -12 -3 -44 -12 -70
-21 -27 -10 -83 -21 -124 -26 -41 -4 -86 -10 -100 -13 -14 -2 -56 -7 -95 -10
l-70 -6 23 20 c24 20 91 42 187 60 104 19 189 43 206 57 8 7 27 13 41 13 14 0
36 9 50 19 13 11 57 34 98 52 41 18 90 41 108 51 19 10 31 15 28 10 -3 -5 2
-9 10 -9 8 0 13 6 10 14 -3 7 1 13 10 13 13 0 15 -7 9 -37z m675 -183 c0 -5
-13 -10 -28 -10 -22 0 -32 -7 -42 -27 -19 -42 -22 -175 -5 -217 17 -40 18 -47
8 -43 -20 6 -14 -20 17 -88 11 -22 22 -60 26 -85 l7 -45 -27 29 c-39 41 -43
24 -8 -31 27 -42 51 -108 57 -153 8 -70 30 -171 42 -200 8 -19 19 -44 23 -55
4 -11 12 -32 19 -47 9 -25 8 -28 -10 -28 -15 0 -20 5 -17 23 4 26 -14 50 -62
83 -23 16 -29 24 -17 24 9 0 17 7 17 16 0 10 -6 14 -15 11 -8 -4 -17 -1 -21 4
-3 6 -15 9 -25 6 -11 -3 -19 0 -19 7 0 6 -9 17 -20 24 -17 10 -20 10 -20 -3 0
-8 4 -15 9 -15 5 0 11 -10 14 -22 3 -13 9 -33 12 -46 6 -18 4 -21 -9 -16 -9 4
-16 1 -16 -6 0 -6 13 -17 29 -23 15 -5 34 -20 41 -31 10 -17 10 -19 -1 -9 -22
21 -27 15 -19 -21 4 -19 6 -37 3 -40 -3 -2 0 -13 6 -23 8 -15 7 -20 -5 -20 -8
0 -19 17 -26 39 -6 21 -16 38 -21 38 -5 0 -4 6 2 14 10 12 8 17 -9 26 -11 6
-18 15 -15 21 4 5 2 9 -4 9 -6 0 -18 25 -26 55 -9 30 -21 57 -26 60 -5 4 -9
33 -9 65 0 65 -14 138 -36 185 -13 27 -14 16 -9 -105 4 -120 18 -207 60 -390
5 -20 2 -18 -14 10 -11 19 -20 42 -21 51 0 9 -6 19 -13 22 -49 19 -123 312
-134 528 -9 178 -1 198 96 256 l44 26 -7 -37 c-7 -36 12 -84 27 -69 4 3 1 11
-7 17 -9 7 -11 19 -6 36 5 14 8 19 9 12 1 -9 8 -11 21 -7 15 5 18 2 15 -15 -2
-11 -7 -25 -11 -32 -5 -7 0 -9 14 -6 12 4 24 3 27 -2 5 -8 -32 -23 -52 -21
-20 3 -16 -4 22 -42 33 -33 35 -34 42 -13 8 26 9 45 0 71 -4 11 -11 58 -16
105 -7 65 -6 94 4 124 11 31 11 42 2 48 -7 4 21 8 61 8 41 0 72 -4 72 -10z
m1690 -676 c0 -8 -4 -12 -10 -9 -5 3 -10 10 -10 16 0 5 5 9 10 9 6 0 10 -7 10
-16z m-15 -34 c3 -5 2 -10 -4 -10 -5 0 -13 5 -16 10 -3 6 -2 10 4 10 5 0 13
-4 16 -10z m-5878 -86 c-3 -3 -12 -4 -19 -1 -8 3 -5 6 6 6 11 1 17 -2 13 -5z
m4148 -64 c3 -5 1 -10 -4 -10 -6 0 -11 5 -11 10 0 6 2 10 4 10 3 0 8 -4 11
-10z m45 -71 c0 -6 -4 -7 -10 -4 -5 3 -10 11 -10 16 0 6 5 7 10 4 6 -3 10 -11
10 -16z"/>
<path d="M2143 8007 c0 -8 6 -14 14 -14 7 0 12 5 10 11 -5 15 -24 18 -24 3z"/>
<path d="M5776 6403 c-6 -14 -5 -15 5 -6 7 7 10 15 7 18 -3 3 -9 -2 -12 -12z"/>
<path d="M5750 6360 c-6 -11 -8 -20 -6 -20 3 0 10 9 16 20 6 11 8 20 6 20 -3
0 -10 -9 -16 -20z"/>
<path d="M5782 6330 c0 -19 2 -27 5 -17 2 9 2 25 0 35 -3 9 -5 1 -5 -18z"/>
<path d="M5781 6277 c-1 -12 -6 -16 -13 -11 -10 5 -10 4 -1 -6 16 -17 26 -8
20 17 -4 17 -5 17 -6 0z"/>
<path d="M7464 3958 c-11 -13 -37 -49 -57 -80 -21 -32 -42 -58 -47 -58 -6 0
-10 -6 -10 -12 1 -18 69 59 107 121 35 56 37 63 7 29z"/>
<path d="M6880 3890 c10 -19 40 -28 40 -12 0 13 -23 32 -37 32 -11 0 -11 -5
-3 -20z"/>
<path d="M6795 3860 c3 -5 13 -10 21 -10 8 0 12 5 9 10 -3 6 -13 10 -21 10 -8
0 -12 -4 -9 -10z"/>
<path d="M5850 3371 c0 -6 5 -13 10 -16 6 -3 10 1 10 9 0 9 -4 16 -10 16 -5 0
-10 -4 -10 -9z"/>
<path d="M5708 3158 c-16 -5 -28 -14 -28 -19 0 -14 13 -10 40 11 28 22 27 23
-12 8z"/>
<path d="M4735 1800 c3 -5 11 -10 16 -10 6 0 7 5 4 10 -3 6 -11 10 -16 10 -6
0 -7 -4 -4 -10z"/>
<path d="M4575 1500 c3 -5 11 -10 16 -10 6 0 7 5 4 10 -3 6 -11 10 -16 10 -6
0 -7 -4 -4 -10z"/>
<path d="M8075 9710 c28 -12 45 -12 45 0 0 6 -15 10 -32 9 -28 0 -30 -2 -13
-9z"/>
<path d="M8316 9704 c-3 -9 -4 -20 -1 -25 3 -5 1 -18 -5 -29 -8 -16 -8 -20 4
-20 8 0 23 -10 33 -23 13 -16 27 -22 51 -21 25 1 37 -4 49 -23 16 -24 17 -24
24 -7 7 17 8 17 8 2 1 -11 9 -18 20 -18 11 0 23 -9 26 -20 6 -20 35 -28 35
-10 0 6 -5 10 -12 10 -6 0 -9 2 -7 5 3 2 15 2 28 -2 15 -4 19 -8 11 -13 -21
-13 19 -51 41 -39 11 5 20 5 23 0 9 -14 -5 -41 -21 -41 -8 0 -12 -4 -8 -9 3
-5 -2 -16 -10 -24 -8 -9 -15 -18 -15 -22 0 -8 47 28 100 76 21 20 48 39 60 42
18 4 21 1 18 -17 -3 -27 18 -56 40 -56 14 0 14 2 -1 13 -15 11 -16 21 -8 77 1
2 8 -5 16 -17 8 -12 12 -28 9 -37 -5 -13 3 -16 49 -16 45 0 57 3 62 19 7 22
89 101 105 101 6 0 9 -3 6 -8 -2 -4 2 -15 9 -25 11 -15 13 -15 18 -2 4 9 13
12 23 8 11 -4 15 -2 11 4 -3 5 3 26 13 46 25 46 25 59 0 82 -11 10 -19 25 -18
34 3 14 -37 16 -388 19 -352 2 -392 1 -398 -14z m458 -9 c3 -8 1 -15 -4 -15
-6 0 -10 7 -10 15 0 8 2 15 4 15 2 0 6 -7 10 -15z m-434 -5 c0 -5 -5 -10 -11
-10 -5 0 -7 5 -4 10 3 6 8 10 11 10 2 0 4 -4 4 -10z m209 -70 c3 -3 0 -14 -7
-25 -10 -17 -13 -18 -22 -5 -15 23 -12 37 8 35 9 0 19 -3 21 -5z"/>
<path d="M2147 9684 c-8 -9 11 -44 23 -44 6 0 10 11 10 25 0 23 -18 34 -33 19z"/>
<path d="M2020 9658 c0 -8 5 -19 12 -26 13 -13 48 -16 48 -4 0 15 -19 36 -26
29 -4 -4 -13 -2 -21 4 -10 9 -13 8 -13 -3z"/>
<path d="M1590 9640 l24 -24 -24 -6 c-13 -3 -25 -11 -28 -18 -5 -15 -3 -15 36
-1 26 9 30 14 22 29 -5 9 -6 20 -3 24 3 3 1 6 -5 6 -5 0 -18 3 -28 7 -13 5
-11 0 6 -17z"/>
<path d="M1675 9650 c3 -5 8 -10 11 -10 2 0 4 5 4 10 0 6 -5 10 -11 10 -5 0
-7 -4 -4 -10z"/>
<path d="M1825 9650 c-3 -5 1 -10 10 -10 9 0 13 5 10 10 -3 6 -8 10 -10 10 -2
0 -7 -4 -10 -10z"/>
<path d="M580 9641 c0 -6 5 -13 10 -16 6 -3 10 1 10 9 0 9 -4 16 -10 16 -5 0
-10 -4 -10 -9z"/>
<path d="M1447 9629 c6 -20 23 -26 23 -8 0 6 6 9 13 6 6 -2 11 -11 9 -18 -3
-11 -1 -11 9 -2 15 15 10 21 -28 32 -27 8 -30 7 -26 -10z"/>
<path d="M1640 9639 c0 -5 5 -7 10 -4 6 3 10 8 10 11 0 2 -4 4 -10 4 -5 0 -10
-5 -10 -11z"/>
<path d="M1680 9622 c0 -14 11 -21 26 -15 21 8 17 23 -6 23 -11 0 -20 -4 -20
-8z"/>
<path d="M2070 9600 c0 -5 6 -10 13 -10 8 0 8 -3 -2 -9 -12 -8 -13 -12 -1 -26
18 -21 30 -7 23 28 -5 25 -33 40 -33 17z"/>
<path d="M1170 9586 c0 -9 5 -16 10 -16 6 0 10 4 10 9 0 6 -4 13 -10 16 -5 3
-10 -1 -10 -9z"/>
<path d="M1233 9585 c-3 -9 -3 -19 1 -22 7 -7 36 16 36 28 0 15 -30 10 -37 -6z"/>
<path d="M2180 9590 c0 -5 6 -10 14 -10 8 0 18 5 21 10 3 6 -3 10 -14 10 -12
0 -21 -4 -21 -10z"/>
<path d="M1207 9570 c-3 -11 -1 -20 4 -20 5 0 9 9 9 20 0 11 -2 20 -4 20 -2 0
-6 -9 -9 -20z"/>
<path d="M2025 9580 c-3 -5 -1 -10 4 -10 6 0 11 5 11 10 0 6 -2 10 -4 10 -3 0
-8 -4 -11 -10z"/>
<path d="M596 9571 c-4 -5 -2 -12 3 -15 5 -4 12 -2 15 3 4 5 2 12 -3 15 -5 4
-12 2 -15 -3z"/>
<path d="M1440 9568 c-21 -9 -22 -12 -7 -15 9 -3 15 -9 12 -14 -4 -5 0 -9 7
-9 8 0 15 11 16 25 1 14 1 25 -1 24 -1 0 -13 -5 -27 -11z"/>
<path d="M1823 9573 c-7 -3 -13 -12 -13 -20 0 -11 4 -13 13 -5 6 5 21 12 32
14 l20 4 -20 5 c-11 3 -26 4 -32 2z"/>
<path d="M1940 9570 c0 -5 7 -7 15 -4 8 4 15 8 15 10 0 2 -7 4 -15 4 -8 0 -15
-4 -15 -10z"/>
<path d="M1685 9553 c-16 -3 -34 -9 -39 -14 -17 -15 47 -10 68 6 11 8 16 14
10 14 -5 -1 -22 -4 -39 -6z"/>
<path d="M2128 9539 c-19 -20 -20 -39 -4 -51 5 -3 10 -16 11 -29 2 -26 25 -39
25 -15 0 11 9 16 31 16 25 0 29 -3 24 -19 -7 -22 16 -44 39 -35 21 8 20 -4 -1
-29 -10 -11 -13 -17 -7 -14 7 4 15 -1 18 -10 6 -14 10 -12 26 12 13 20 20 24
20 14 0 -15 44 -53 63 -54 4 0 7 -3 7 -7 0 -5 0 -13 0 -18 0 -6 -11 -8 -27 -4
-26 7 -27 6 -11 -9 9 -9 21 -17 27 -17 7 0 7 -8 1 -26 -9 -21 -7 -29 7 -40 10
-7 21 -14 24 -14 4 0 9 -9 12 -19 3 -14 11 -18 26 -14 15 4 21 1 21 -11 0 -9
7 -16 15 -16 8 0 15 7 15 15 0 9 -7 18 -15 21 -8 4 -15 11 -15 17 0 8 3 8 11
0 8 -8 20 -8 39 -1 26 9 28 13 23 45 -5 28 -3 34 7 28 9 -5 10 -2 6 12 -4 14
-1 19 13 19 15 0 17 -4 11 -17 -5 -9 -6 -19 -3 -23 3 -3 1 -6 -6 -6 -7 0 -10
-4 -6 -10 8 -13 37 0 32 14 -2 6 0 22 4 35 8 20 11 22 27 10 15 -12 16 -11 2
3 -8 9 -28 18 -45 20 -22 2 -33 11 -42 30 -8 19 -17 26 -27 22 -9 -3 -16 -2
-16 2 0 5 -4 15 -9 22 -7 12 -14 11 -40 -3 -24 -12 -32 -13 -30 -3 3 27 -2 37
-16 32 -9 -4 -15 0 -15 10 0 18 -8 20 -29 7 -10 -7 -11 -13 -1 -31 9 -17 9
-25 0 -34 -9 -8 -11 -7 -8 4 2 8 -3 14 -9 13 -7 -2 -13 2 -13 7 0 6 5 10 11
10 6 0 4 7 -5 15 -8 8 -20 15 -26 15 -7 0 -8 5 -1 17 7 12 5 21 -7 30 -16 12
-16 13 -1 7 21 -7 31 7 19 26 -8 12 -13 13 -30 3 -29 -19 -33 -16 -26 17 3 17
1 30 -4 30 -9 0 -12 -13 -9 -37 1 -10 -33 -21 -48 -16 -6 2 -14 15 -17 29 -7
28 -24 30 -48 3z m263 -162 c-13 -13 -26 -3 -16 12 3 6 11 8 17 5 6 -4 6 -10
-1 -17z m107 -60 c5 -24 -15 -21 -21 4 -3 13 -1 19 6 16 7 -2 13 -11 15 -20z
m10 -69 c-2 -12 -8 -23 -14 -25 -7 -2 -10 6 -7 22 6 30 26 34 21 3z"/>
<path d="M1610 9530 c-9 -6 -10 -10 -3 -10 6 0 15 5 18 10 8 12 4 12 -15 0z"/>
<path d="M1390 9519 c0 -5 5 -7 10 -4 6 3 10 8 10 11 0 2 -4 4 -10 4 -5 0 -10
-5 -10 -11z"/>
<path d="M1560 9520 c0 -5 7 -7 15 -4 8 4 15 8 15 10 0 2 -7 4 -15 4 -8 0 -15
-4 -15 -10z"/>
<path d="M1693 9487 c4 -11 -3 -19 -26 -28 -18 -7 -36 -15 -41 -17 -5 -3 -6 0
-3 6 4 5 -2 12 -13 15 -11 3 -22 2 -25 -2 -7 -12 7 -51 16 -45 5 3 9 -1 10 -8
1 -7 2 -24 2 -37 2 -17 10 -27 29 -32 17 -4 29 -3 32 4 5 9 7 9 11 1 4 -7 22
-11 43 -9 20 1 29 1 20 -2 -14 -3 -16 -8 -7 -24 5 -11 15 -16 21 -13 8 5 9 1
3 -12 -4 -10 -7 -29 -6 -41 0 -13 -4 -23 -10 -23 -6 0 -9 7 -5 15 3 10 -1 15
-14 15 -22 0 -39 -22 -22 -28 7 -2 12 -15 12 -28 0 -27 17 -33 26 -9 4 8 10
15 16 15 5 0 7 -4 3 -9 -3 -5 -1 -12 5 -16 5 -3 10 -2 10 3 0 5 9 20 21 33 21
24 21 24 1 27 -25 4 -38 32 -16 32 11 0 15 6 11 19 -3 14 0 17 14 14 11 -3 20
0 21 8 4 41 3 69 -4 69 -4 0 -8 5 -8 11 0 6 6 9 13 6 8 -3 11 5 10 27 -1 17
-2 32 -2 33 -2 7 -40 -13 -40 -21 1 -5 -5 -13 -13 -17 -9 -6 -10 -11 -2 -16
19 -14 23 -51 6 -65 -13 -11 -15 -10 -10 3 7 18 -27 53 -42 44 -5 -3 -21 2
-35 11 -18 12 -23 19 -14 25 7 4 19 -1 28 -12 14 -16 18 -17 35 -4 11 8 14 15
8 15 -7 0 -12 7 -12 16 0 9 -9 18 -20 21 -11 3 -20 11 -20 19 0 7 -5 16 -12
20 -7 5 -9 2 -5 -9z"/>
<path d="M6845 9480 c-4 -7 -9 -57 -11 -113 -4 -115 -1 -112 17 21 11 88 10
117 -6 92z"/>
<path d="M2331 9464 c0 -11 3 -14 6 -6 3 7 2 16 -1 19 -3 4 -6 -2 -5 -13z"/>
<path d="M1852 9428 c6 -18 28 -21 28 -4 0 9 -7 16 -16 16 -9 0 -14 -5 -12
-12z"/>
<path d="M1955 9419 c-9 -27 -3 -32 20 -15 10 7 15 18 11 24 -11 18 -24 14
-31 -9z"/>
<path d="M1886 9405 c-3 -9 0 -15 9 -15 16 0 20 16 6 24 -5 3 -11 -1 -15 -9z"/>
<path d="M2555 9410 c-3 -6 1 -7 9 -4 18 7 21 14 7 14 -6 0 -13 -4 -16 -10z"/>
<path d="M2545 9379 c-4 -6 -5 -12 -2 -15 2 -3 7 2 10 11 7 17 1 20 -8 4z"/>
<path d="M2710 9373 c0 -5 8 -17 17 -28 14 -18 15 -18 9 -2 -3 10 -6 23 -6 28
0 5 -4 9 -10 9 -5 0 -10 -3 -10 -7z"/>
<path d="M1855 9360 c3 -5 8 -10 11 -10 2 0 4 5 4 10 0 6 -5 10 -11 10 -5 0
-7 -4 -4 -10z"/>
<path d="M2801 9344 c0 -11 3 -14 6 -6 3 7 2 16 -1 19 -3 4 -6 -2 -5 -13z"/>
<path d="M2645 9331 c-3 -6 -2 -11 4 -11 6 0 8 -7 5 -15 -6 -15 11 -45 26 -45
12 0 5 35 -12 59 -10 14 -18 18 -23 12z"/>
<path d="M2006 9303 c8 -30 7 -93 -2 -102 -3 -3 -9 0 -13 7 -13 22 -50 23 -61
1 -9 -16 -7 -19 9 -19 11 0 22 -6 24 -12 4 -10 6 -10 6 0 1 14 31 17 31 3 0
-5 7 -12 16 -15 8 -3 13 -2 10 2 -7 12 34 44 49 38 9 -3 16 6 20 25 4 16 14
33 23 38 14 8 15 12 4 23 -10 10 -17 10 -32 0 -25 -16 -30 -15 -30 3 0 9 -6
12 -15 9 -9 -4 -15 0 -15 10 0 9 -7 16 -16 16 -13 0 -15 -6 -8 -27z"/>
<path d="M1560 9295 c0 -8 -5 -15 -11 -15 -5 0 -8 -4 -5 -9 3 -4 17 -6 31 -4
20 4 23 8 14 24 -12 23 -29 25 -29 4z"/>
<path d="M1690 9306 c0 -2 7 -7 16 -10 8 -3 12 -2 9 4 -6 10 -25 14 -25 6z"/>
<path d="M1650 9296 c0 -2 7 -7 16 -10 8 -3 12 -2 9 4 -6 10 -25 14 -25 6z"/>
<path d="M1310 9281 c0 -6 5 -13 10 -16 6 -3 10 1 10 9 0 9 -4 16 -10 16 -5 0
-10 -4 -10 -9z"/>
<path d="M1615 9260 c-3 -5 -2 -10 4 -10 5 0 13 5 16 10 3 6 2 10 -4 10 -5 0
-13 -4 -16 -10z"/>
<path d="M6814 9237 c-5 -12 -15 -21 -22 -19 -7 1 -12 -2 -12 -8 0 -19 -31
-10 -40 13 -7 18 -9 19 -9 3 -1 -14 -6 -17 -23 -13 -12 4 -28 1 -35 -5 -7 -6
-13 -7 -13 -3 0 4 8 14 17 20 16 12 15 13 -10 12 -19 -2 -27 -7 -27 -20 0 -26
-30 -34 -46 -12 -12 16 -14 16 -28 2 -20 -20 -20 -31 0 -23 9 3 12 2 9 -5 -4
-6 -13 -8 -21 -5 -7 3 -37 -11 -66 -31 -52 -35 -52 -35 -18 -28 19 4 41 12 49
19 12 9 12 7 1 -14 -12 -23 -12 -24 4 -11 10 8 15 23 12 33 -3 12 0 18 7 15 7
-2 20 0 29 4 15 8 16 7 2 -18 -19 -37 -18 -43 7 -43 17 0 19 -3 10 -13 -11
-14 -5 -27 11 -27 5 0 7 4 3 9 -6 10 60 7 94 -4 11 -3 22 -1 26 5 10 17 25 11
25 -10 0 -11 6 -20 14 -20 18 0 39 -53 31 -79 -3 -11 -2 -28 2 -36 6 -10 14
48 22 155 7 94 11 173 9 175 -2 2 -8 -6 -14 -18z"/>
<path d="M1569 9245 c-4 -3 -5 -19 -3 -36 4 -34 38 -76 49 -60 3 6 11 9 16 6
5 -3 6 1 3 9 -7 19 -4 19 30 6 28 -10 34 -2 14 19 -7 6 -13 17 -13 24 0 7 -11
13 -23 15 -20 3 -23 0 -18 -16 4 -11 0 -24 -9 -32 -16 -13 -14 -16 -32 43 -5
16 -11 26 -14 22z"/>
<path d="M1814 9213 c-25 -36 -26 -61 -3 -73 22 -13 33 2 25 34 -4 15 0 28 9
36 19 16 19 30 1 30 -7 0 -22 -12 -32 -27z"/>
<path d="M6597 9234 c-8 -8 3 -34 14 -34 5 0 9 9 9 20 0 19 -11 26 -23 14z"/>
<path d="M1376 9216 c7 -19 32 -28 40 -14 4 7 3 8 -4 4 -7 -4 -12 -1 -12 8 0
9 -7 16 -15 16 -8 0 -12 -6 -9 -14z"/>
<path d="M1860 9201 c0 -5 5 -13 10 -16 6 -3 10 -2 10 4 0 5 -4 13 -10 16 -5
3 -10 2 -10 -4z"/>
<path d="M1437 9170 c-13 -16 -14 -20 -3 -20 8 0 17 7 20 16 9 25 2 26 -17 4z"/>
<path d="M2049 9188 c-9 -30 -6 -35 16 -24 16 7 20 13 12 18 -12 8 -26 10 -28
6z"/>
<path d="M1466 9161 c-4 -5 -2 -12 3 -15 5 -4 12 -2 15 3 4 5 2 12 -3 15 -5 4
-12 2 -15 -3z"/>
<path d="M65 9130 c3 -5 8 -10 11 -10 2 0 4 5 4 10 0 6 -5 10 -11 10 -5 0 -7
-4 -4 -10z"/>
<path d="M8200 9100 c41 -21 80 -39 85 -39 6 0 -24 18 -65 39 -41 21 -79 39
-85 39 -5 0 24 -18 65 -39z"/>
<path d="M0 9075 c0 -52 1 -55 19 -45 16 8 21 6 26 -9 10 -34 35 -14 28 22 -7
36 -28 61 -43 52 -5 -3 -10 1 -10 9 0 8 -4 18 -10 21 -6 4 -10 -15 -10 -50z"/>
<path d="M1066 9116 c3 -8 12 -12 20 -9 17 6 9 23 -11 23 -8 0 -12 -6 -9 -14z"/>
<path d="M1122 9100 c9 -14 14 -16 20 -7 13 20 9 27 -12 27 -18 0 -19 -3 -8
-20z"/>
<path d="M830 9071 c0 -6 5 -13 10 -16 6 -3 10 1 10 9 0 9 -4 16 -10 16 -5 0
-10 -4 -10 -9z"/>
<path d="M340 9040 c11 -20 30 -28 30 -12 0 11 -22 32 -32 32 -5 0 -4 -9 2
-20z"/>
<path d="M6880 9040 c0 -5 18 -15 40 -21 22 -7 40 -15 40 -19 0 -4 12 -7 28
-7 24 0 21 2 -18 19 -78 34 -90 38 -90 28z"/>
<path d="M7236 8972 c-3 -5 27 -26 67 -47 39 -21 83 -46 96 -56 13 -10 27 -16
32 -13 5 3 9 -1 9 -8 1 -7 41 -33 91 -57 49 -24 88 -46 86 -47 -1 -2 -61 21
-132 50 -109 45 -230 92 -308 122 -15 6 -17 0 -14 -59 2 -59 6 -69 37 -101 19
-19 38 -32 42 -30 4 3 17 0 28 -6 12 -6 31 -13 43 -16 44 -8 64 -67 27 -79
-18 -6 -19 -8 -4 -31 9 -13 20 -21 25 -18 5 3 12 -1 15 -10 3 -8 11 -13 17
-11 7 2 27 6 45 9 29 5 32 3 32 -19 0 -14 5 -25 10 -25 6 0 10 -7 10 -15 0
-19 24 -19 40 0 7 8 16 12 21 9 5 -3 9 2 9 10 0 17 40 18 40 1 0 -5 5 -2 11 7
10 19 39 14 39 -7 0 -8 9 -11 24 -8 17 4 25 0 28 -11 3 -15 8 -13 37 8 27 20
43 25 80 22 25 -2 54 -7 64 -11 17 -7 21 3 18 45 0 10 1 11 5 3 3 -7 10 -13
15 -13 6 0 7 5 4 10 -10 16 10 12 58 -12 24 -13 42 -28 40 -35 -3 -7 3 -13 13
-13 16 0 16 -1 1 -18 -10 -10 -17 -24 -17 -30 0 -6 -6 -9 -14 -6 -17 7 -31
-12 -16 -21 6 -4 17 -2 24 4 21 17 45 2 54 -32 5 -20 16 -33 29 -37 12 -3 36
-18 54 -34 43 -38 116 -44 156 -13 19 15 25 17 21 6 -4 -10 0 -15 13 -16 12
-1 16 3 12 13 -4 10 0 12 11 8 11 -4 16 -1 16 11 0 9 4 14 10 10 5 -3 7 -12 3
-20 -4 -13 8 -20 22 -12 7 3 34 -37 29 -45 -4 -6 142 -24 160 -19 6 1 19 -2
30 -8 35 -17 199 -72 203 -67 2 2 -39 22 -91 45 -53 23 -198 93 -323 156 -126
62 -284 137 -353 165 -69 28 -134 56 -145 62 -11 6 -45 25 -75 41 -73 40 -78
44 -101 90 -22 42 -19 58 7 37 13 -12 17 -11 25 1 5 8 9 16 9 19 0 11 -56 38
-75 37 -11 -1 -19 3 -17 11 1 7 -8 12 -23 12 -14 0 -25 4 -25 8 0 5 -12 15
-27 22 -16 8 -41 23 -58 35 -30 20 -75 28 -75 13 0 -4 -5 -8 -11 -8 -5 0 -8 4
-5 8 2 4 -10 6 -29 4 -19 -2 -43 3 -58 13 -14 9 -42 15 -63 15 -22 -1 -49 1
-60 5 -12 4 -24 2 -28 -3z m298 -50 c3 -5 -1 -9 -9 -9 -8 0 -15 4 -15 9 0 4 4
8 9 8 6 0 12 -4 15 -8z m196 -177 c0 -5 -5 -3 -10 5 -5 8 -10 20 -10 25 0 6 5
3 10 -5 5 -8 10 -19 10 -25z"/>
<path d="M560 8940 c0 -5 5 -10 10 -10 6 0 10 5 10 10 0 6 -4 10 -10 10 -5 0
-10 -4 -10 -10z"/>
<path d="M5950 8890 c-13 -9 -13 -12 3 -24 36 -28 12 -55 -50 -56 -34 0 -28
-16 10 -26 21 -7 33 -17 35 -31 4 -28 26 -21 70 24 31 33 43 73 22 73 -5 0
-10 6 -10 13 0 8 -11 19 -25 25 -31 14 -36 15 -55 2z"/>
<path d="M7821 8814 c0 -11 3 -14 6 -6 3 7 2 16 -1 19 -3 4 -6 -2 -5 -13z"/>
<path d="M930 8768 c0 -8 7 -23 15 -34 14 -19 14 -19 15 2 0 12 -7 27 -15 34
-12 10 -15 10 -15 -2z"/>
<path d="M2295 8760 c-3 -5 -1 -10 4 -10 6 0 11 5 11 10 0 6 -2 10 -4 10 -3 0
-8 -4 -11 -10z"/>
<path d="M696 8753 c-11 -11 -6 -23 9 -23 8 0 15 4 15 9 0 13 -16 22 -24 14z"/>
<path d="M2080 8731 c0 -6 4 -12 9 -15 13 -8 42 4 35 15 -7 12 -44 12 -44 0z"/>
<path d="M1692 8688 c-16 -16 -15 -28 3 -28 8 0 15 9 15 20 0 23 -2 24 -18 8z"/>
<path d="M1810 8670 c-13 -8 -13 -10 2 -10 9 0 20 5 23 10 8 13 -5 13 -25 0z"/>
<path d="M80 8540 c0 -14 37 -31 55 -24 12 5 13 9 4 20 -13 16 -59 19 -59 4z"/>
<path d="M864 8537 c-3 -9 -12 -17 -20 -17 -8 0 -14 -9 -14 -19 0 -12 -9 -21
-25 -25 -22 -6 -23 -9 -13 -26 16 -26 28 -25 28 0 0 19 2 20 28 6 18 -9 33
-11 43 -5 12 7 12 9 -2 9 -20 0 -20 32 0 47 15 11 14 13 -1 29 -16 16 -18 16
-24 1z"/>
<path d="M1175 8493 c7 -23 16 -33 30 -33 14 0 16 3 7 8 -7 5 -10 15 -7 23 3
8 -4 18 -18 25 -22 10 -23 9 -12 -23z"/>
<path d="M7840 8521 c0 -5 5 -13 10 -16 6 -3 10 -2 10 4 0 5 -4 13 -10 16 -5
3 -10 2 -10 -4z"/>
<path d="M6042 8508 c6 -16 36 -34 44 -26 3 4 4 14 1 23 -7 17 -51 21 -45 3z"/>
<path d="M163 8498 c2 -7 10 -12 16 -10 6 1 11 -2 11 -8 0 -5 8 -10 18 -10 14
0 12 4 -8 20 -29 23 -44 26 -37 8z"/>
<path d="M962 8481 c2 -7 7 -12 11 -12 12 1 9 15 -3 20 -7 2 -11 -2 -8 -8z"/>
<path d="M7570 8445 c-7 -8 -9 -19 -5 -23 4 -4 10 -2 12 5 2 7 11 9 20 6 10
-4 14 -2 11 7 -6 20 -23 23 -38 5z"/>
<path d="M950 8445 c0 -12 56 -54 71 -55 8 0 28 -13 44 -30 16 -16 38 -30 49
-30 19 0 18 3 -9 25 -16 13 -36 24 -42 25 -7 0 -13 4 -13 9 0 4 -18 20 -40 35
-38 25 -60 32 -60 21z"/>
<path d="M1453 8403 c-19 -3 -33 -10 -33 -18 0 -21 16 -27 30 -10 7 8 19 15
26 15 8 0 14 5 14 10 0 6 -1 9 -2 8 -2 0 -18 -3 -35 -5z"/>
<path d="M973 8293 c2 -51 24 -71 29 -26 4 30 -10 73 -23 73 -4 0 -7 -21 -6
-47z"/>
<path d="M883 8318 c-7 -12 26 -40 41 -35 20 7 15 22 -9 34 -17 8 -27 8 -32 1z"/>
<path d="M855 8301 c-10 -17 15 -45 29 -31 7 7 5 15 -6 26 -11 11 -18 13 -23
5z"/>
<path d="M811 8244 c0 -11 3 -14 6 -6 3 7 2 16 -1 19 -3 4 -6 -2 -5 -13z"/>
<path d="M890 8250 c0 -5 7 -10 16 -10 8 0 12 5 9 10 -3 6 -10 10 -16 10 -5 0
-9 -4 -9 -10z"/>
<path d="M8939 8133 c57 -41 62 -48 66 -97 3 -30 11 -54 22 -61 9 -7 13 -17 9
-23 -4 -7 -2 -10 6 -7 9 4 18 -7 27 -30 7 -21 17 -33 23 -29 6 4 24 7 39 6 20
0 29 4 29 15 0 12 8 9 35 -11 19 -15 40 -24 46 -20 6 3 19 -3 30 -15 11 -12
24 -21 30 -21 6 0 8 -9 4 -19 -4 -14 1 -25 20 -37 14 -9 24 -23 21 -30 -7 -19
-3 -18 54 11 26 13 68 27 92 31 l43 6 -55 -27 c-30 -14 -69 -37 -86 -50 -20
-15 -43 -23 -68 -22 -20 1 -40 -3 -44 -9 -11 -16 -34 -10 -49 13 -14 21 -13
22 24 29 59 11 61 17 8 30 -43 11 -63 10 -155 -7 -58 -11 -129 -31 -159 -45
-29 -13 -60 -24 -69 -24 -8 0 -24 -7 -34 -17 -17 -15 -18 -15 -18 8 0 13 9 53
20 88 11 36 18 67 16 69 -6 5 -43 -99 -51 -141 -7 -36 -7 -36 -50 -30 -26 3
-45 1 -49 -6 -4 -6 -2 -11 3 -11 6 0 11 -8 11 -17 0 -10 7 -27 15 -37 8 -11
15 -23 15 -28 0 -12 -28 -10 -50 4 -29 18 -36 1 -9 -21 21 -18 22 -21 9 -35
-9 -9 -41 -16 -82 -19 -45 -2 -74 -9 -86 -20 -15 -14 -24 -15 -49 -6 -27 9
-37 7 -73 -16 -23 -15 -47 -40 -55 -58 -7 -18 -34 -65 -58 -105 -32 -51 -46
-68 -49 -55 -2 12 -15 -4 -36 -48 l-33 -66 -2 -214 -2 -214 -34 -74 c-28 -62
-35 -93 -42 -181 -5 -58 -17 -135 -29 -171 -25 -81 -25 -80 6 -44 16 20 27 26
30 18 3 -7 15 -13 26 -13 17 0 18 -2 8 -15 -11 -14 -10 -14 12 -6 13 5 45 23
70 40 130 88 203 105 370 87 72 -8 81 -7 133 18 30 14 62 26 69 26 7 0 24 13
37 29 42 49 80 59 127 33 13 -8 30 -11 37 -8 8 3 25 -4 39 -15 16 -13 48 -22
90 -26 l65 -6 -3 -56 c-5 -84 -33 -169 -57 -176 -17 -6 -19 -12 -13 -33 3 -15
8 -35 8 -44 1 -10 5 -20 8 -24 4 -3 4 -12 1 -20 -3 -7 9 -31 26 -53 17 -21 31
-43 31 -48 0 -6 9 -18 20 -28 11 -10 20 -24 20 -32 0 -7 4 -13 9 -13 9 0 22
-30 26 -60 5 -45 19 -69 48 -82 18 -7 35 -13 39 -13 4 0 13 -6 19 -12 21 -21
43 -15 57 17 8 17 20 30 28 30 8 0 14 4 14 10 0 12 46 43 68 45 10 1 35 6 57
11 22 4 46 7 53 5 20 -3 42 18 44 43 1 11 4 -10 8 -49 4 -38 7 415 8 1008 1
750 -1 1076 -8 1072 -6 -4 -10 -14 -9 -23 3 -35 -2 -42 -30 -42 -28 0 -29 2
-24 33 3 24 0 39 -12 50 -9 9 -14 21 -10 26 3 5 1 12 -5 16 -5 3 -10 -3 -10
-14 0 -44 -93 -32 -111 16 -6 16 -16 23 -35 23 -42 0 -163 39 -251 81 -44 21
-88 39 -97 39 -9 0 -24 4 -34 9 -16 9 -86 31 -142 45 l-25 7 24 -18z m318
-489 c-3 -3 -12 -4 -19 -1 -8 3 -5 6 6 6 11 1 17 -2 13 -5z m66 -19 c4 -8 2
-17 -3 -20 -5 -3 -4 -18 2 -35 13 -38 4 -73 -23 -99 -14 -13 -20 -27 -16 -40
6 -26 -19 -61 -44 -61 -10 0 -19 3 -19 8 0 4 -19 6 -42 4 -24 -3 -40 -1 -36 3
4 5 3 14 -3 21 -14 17 10 67 70 145 23 30 41 59 41 66 0 24 65 31 73 8z m285
-91 c-10 -10 -28 6 -28 24 0 15 1 15 17 -1 9 -9 14 -19 11 -23z m-284 -258
c-4 -12 -9 -23 -13 -26 -3 -3 -14 -22 -23 -42 -19 -41 -29 -46 -48 -23 -7 8
-16 13 -20 10 -5 -3 -15 -2 -24 1 -13 5 -12 12 11 42 14 21 40 49 56 64 29 26
32 27 49 11 12 -11 16 -23 12 -37z m-132 -103 c-6 -2 -10 -9 -7 -14 4 -5 -1
-6 -9 -3 -20 8 -11 24 12 23 11 0 12 -2 4 -6z m96 -106 c-1 -29 -7 -65 -15
-80 -8 -16 -17 -39 -20 -50 -12 -43 -14 -155 -5 -191 12 -43 8 -45 -96 -44
-40 0 -78 -4 -85 -10 -6 -5 -31 -12 -53 -16 -32 -4 -47 -2 -63 12 -35 28 -33
55 5 92 26 24 34 40 32 59 -2 19 7 36 33 63 20 20 34 39 32 42 -3 2 5 9 16 16
12 6 21 17 21 25 0 8 7 15 15 15 8 0 15 4 15 8 0 8 80 52 93 52 14 0 58 50 52
59 -3 6 0 8 8 5 11 -4 15 -21 15 -57z m323 -467 c20 -6 44 -19 54 -30 21 -23
9 -26 -19 -5 -30 23 -89 19 -121 -7 -16 -13 -56 -41 -88 -63 -60 -40 -61 -41
-88 -130 -36 -113 -42 -181 -16 -179 13 1 17 -6 17 -33 0 -26 -4 -34 -14 -30
-11 4 -13 -2 -10 -27 3 -23 -3 -42 -21 -66 -16 -22 -25 -28 -25 -17 0 9 8 20
17 26 10 5 14 13 10 17 -4 4 -13 2 -19 -4 -25 -25 -40 -6 -15 20 7 8 13 47 14
99 7 242 82 387 223 430 36 11 60 10 101 -1z m-121 -411 c0 -5 -4 -7 -10 -4
-5 3 -10 -1 -10 -9 0 -9 -4 -16 -10 -16 -14 0 -13 13 2 28 15 15 28 15 28 1z
m-310 -130 c0 -6 -4 -7 -10 -4 -5 3 -10 11 -10 16 0 6 5 7 10 4 6 -3 10 -11
10 -16z m181 -22 c-16 -16 -26 0 -10 19 9 11 15 12 17 4 2 -6 -1 -17 -7 -23z"/>
<path d="M5432 8100 c-13 -16 -18 -30 -12 -30 5 0 10 5 10 10 0 6 9 14 20 18
12 4 16 12 11 20 -5 8 -14 3 -29 -18z"/>
<path d="M5486 8085 c4 -10 2 -13 -7 -10 -8 3 -20 -4 -27 -15 -8 -13 -8 -20
-1 -20 5 0 7 -4 4 -10 -11 -18 15 -10 36 11 20 20 19 59 -1 59 -5 0 -7 -7 -4
-15z"/>
<path d="M5416 8025 c-3 -8 -1 -15 4 -15 6 0 10 7 10 15 0 8 -2 15 -4 15 -2 0
-6 -7 -10 -15z"/>
<path d="M9713 7935 c0 -22 2 -30 4 -17 2 12 2 30 0 40 -3 9 -5 -1 -4 -23z"/>
<path d="M5365 7950 c-3 -5 -1 -10 4 -10 6 0 11 5 11 10 0 6 -2 10 -4 10 -3 0
-8 -4 -11 -10z"/>
<path d="M5606 7887 c3 -10 9 -15 12 -12 3 3 0 11 -7 18 -10 9 -11 8 -5 -6z"/>
<path d="M8876 7873 c-6 -14 -5 -15 5 -6 7 7 10 15 7 18 -3 3 -9 -2 -12 -12z"/>
<path d="M5635 7830 c3 -5 8 -10 11 -10 2 0 4 5 4 10 0 6 -5 10 -11 10 -5 0
-7 -4 -4 -10z"/>
<path d="M0 7809 c0 -11 4 -17 10 -14 5 3 10 -3 10 -14 0 -25 15 -27 37 -5 13
13 18 13 25 2 8 -10 9 -10 5 2 -2 8 -16 16 -31 18 -15 2 -30 10 -33 18 -8 21
-23 17 -23 -7z"/>
<path d="M6013 7779 c-6 -6 -9 -18 -6 -25 3 -8 0 -14 -7 -14 -7 0 -6 -5 4 -15
20 -21 23 -19 28 15 5 36 -4 54 -19 39z"/>
<path d="M145 7770 c-3 -5 -1 -10 4 -10 6 0 11 5 11 10 0 6 -2 10 -4 10 -3 0
-8 -4 -11 -10z"/>
<path d="M70 7739 c0 -5 5 -7 10 -4 6 3 10 8 10 11 0 2 -4 4 -10 4 -5 0 -10
-5 -10 -11z"/>
<path d="M6190 7703 c0 -15 41 -75 47 -70 3 3 -5 22 -17 41 -21 35 -30 43 -30
29z"/>
<path d="M1002 7319 c2 -6 8 -10 13 -10 5 0 11 4 13 10 2 6 -4 11 -13 11 -9 0
-15 -5 -13 -11z"/>
<path d="M894 7256 c-7 -20 2 -46 16 -46 13 0 13 47 0 55 -6 3 -13 -1 -16 -9z"/>
<path d="M1582 7230 c-6 -16 -8 -29 -4 -29 25 4 32 -4 30 -32 -1 -16 -8 -35
-15 -41 -22 -18 -9 -68 18 -68 23 0 30 122 10 168 -18 40 -26 40 -39 2z"/>
<path d="M1967 7171 c-26 -26 -27 -29 -13 -44 9 -9 19 -30 23 -48 6 -29 5 -31
-15 -20 -11 6 -22 16 -25 23 -3 10 -7 10 -20 0 -12 -10 -21 -11 -36 -3 -26 14
-36 -1 -19 -30 10 -17 10 -23 1 -26 -22 -8 -14 -37 17 -66 17 -16 30 -33 30
-38 0 -14 22 -11 42 7 10 9 31 17 47 18 20 1 29 6 29 16 -3 35 3 47 28 59 23
10 25 15 20 49 -4 20 -8 48 -10 62 -1 15 -13 30 -29 38 -15 7 -27 17 -27 23 0
15 -14 9 -43 -20z m44 -34 c-10 -9 -11 -8 -5 6 3 10 9 15 12 12 3 -3 0 -11 -7
-18z m-24 -119 c-3 -8 -6 -5 -6 6 -1 11 2 17 5 13 3 -3 4 -12 1 -19z"/>
<path d="M605 7150 c3 -5 8 -10 11 -10 2 0 4 5 4 10 0 6 -5 10 -11 10 -5 0 -7
-4 -4 -10z"/>
<path d="M566 7141 c-4 -5 -2 -12 3 -15 5 -4 12 -2 15 3 4 5 2 12 -3 15 -5 4
-12 2 -15 -3z"/>
<path d="M667 7133 c-4 -3 -7 -11 -7 -17 0 -6 5 -5 12 2 6 6 9 14 7 17 -3 3
-9 2 -12 -2z"/>
<path d="M397 7024 c-15 -8 -37 -12 -47 -9 -24 8 -25 -1 -6 -47 20 -46 44 -67
56 -48 5 8 6 18 4 22 -3 4 -7 17 -9 29 -4 18 -1 20 20 15 18 -5 25 -1 30 14 6
20 0 40 -13 40 -4 -1 -20 -8 -35 -16z"/>
<path d="M1833 6911 c0 -11 5 -17 9 -15 11 7 10 34 -1 34 -6 0 -9 -9 -8 -19z"/>
<path d="M1778 6848 c0 -18 -2 -39 -2 -47 -1 -16 -44 -34 -63 -27 -7 3 -16 5
-20 5 -3 -1 -10 6 -15 15 -14 24 -58 21 -58 -4 0 -11 -7 -23 -15 -26 -37 -15
3 -66 45 -58 15 4 30 1 34 -4 10 -16 -30 -25 -54 -12 -17 9 -22 7 -30 -15 -6
-15 -10 -35 -10 -46 0 -10 -4 -19 -9 -19 -5 0 -8 -13 -6 -30 4 -26 1 -30 -21
-30 -22 0 -24 -3 -19 -22 9 -29 13 -33 50 -46 17 -5 38 -13 48 -17 10 -4 17
-3 17 4 0 6 -7 11 -15 11 -8 0 -15 6 -15 14 0 11 9 13 36 9 34 -6 36 -4 30 16
-3 11 -8 29 -11 39 -3 11 6 26 27 42 17 14 40 33 50 43 15 14 27 17 46 11 45
-12 52 -13 46 -3 -3 6 -1 15 4 22 5 7 13 33 16 59 6 41 5 47 -14 53 -11 3 -17
11 -14 17 8 13 -27 78 -43 78 -8 0 -14 -14 -15 -32z"/>
<path d="M1172 6748 c5 -15 28 -23 28 -10 0 5 -7 13 -16 16 -10 4 -14 1 -12
-6z"/>
<path d="M1420 6711 c0 -12 5 -21 10 -21 6 0 10 6 10 14 0 8 -4 18 -10 21 -5
3 -10 -3 -10 -14z"/>
<path d="M283 6705 c-3 -9 -3 -18 0 -21 9 -9 27 6 27 22 0 19 -19 18 -27 -1z"/>
<path d="M1176 6705 c-8 -23 -8 -23 13 -34 15 -9 18 -6 17 16 -1 30 -21 42
-30 18z"/>
<path d="M1240 6669 c0 -5 5 -7 10 -4 6 3 10 8 10 11 0 2 -4 4 -10 4 -5 0 -10
-5 -10 -11z"/>
<path d="M388 6591 c11 -7 10 -9 -3 -14 -12 -5 -14 -11 -6 -25 7 -13 7 -22 -1
-30 -17 -17 15 -58 53 -66 89 -18 125 2 76 41 -12 10 -29 32 -36 49 -9 24 -17
30 -32 27 -13 -4 -19 0 -19 11 0 10 -8 16 -22 16 -17 0 -19 -3 -10 -9z"/>
<path d="M0 6484 c0 -20 27 -47 40 -39 6 3 7 -1 4 -9 -5 -13 3 -16 45 -16 29
0 51 5 51 11 0 5 4 8 9 5 5 -3 11 0 14 8 4 10 -7 15 -39 19 -25 2 -53 11 -62
19 -23 20 -62 21 -62 2z"/>
<path d="M790 6475 c0 -9 -9 -15 -23 -15 -13 0 -28 -5 -35 -12 -17 -17 33 -36
73 -28 29 6 33 17 26 63 -2 14 -41 7 -41 -8z"/>
<path d="M1 6415 c0 -31 2 -36 9 -23 6 10 7 25 1 40 -9 20 -10 18 -10 -17z"/>
<path d="M8020 5929 c-36 -4 -94 -15 -129 -24 -73 -19 -194 -65 -187 -72 2 -2
37 7 77 20 79 27 158 43 254 51 314 29 340 34 185 33 -74 -1 -164 -4 -200 -8z"/>
<path d="M8190 5831 c-27 -17 -46 -36 -48 -49 -2 -16 1 -20 11 -16 8 3 18 1
22 -5 3 -7 0 -8 -9 -5 -11 4 -17 -3 -22 -22 -5 -18 -3 -29 5 -32 13 -4 -37
-69 -50 -65 -5 2 -3 -8 3 -22 6 -14 15 -25 20 -25 5 0 7 3 4 8 -2 4 7 12 20
19 21 10 24 9 24 -8 0 -21 15 -26 25 -8 5 6 12 4 21 -8 11 -15 15 -16 23 -4 5
8 19 12 35 9 26 -5 36 6 14 15 -9 4 -9 6 -1 6 6 1 9 10 6 22 -3 11 -11 18 -19
15 -19 -7 -30 14 -13 25 9 7 5 8 -13 3 -23 -5 -26 -3 -21 15 3 12 9 21 13 21
5 0 12 9 15 20 3 11 13 20 22 20 13 0 13 3 2 16 -9 11 -10 17 -1 23 8 5 4 15
-12 34 -13 15 -25 27 -27 26 -2 0 -24 -13 -49 -28z"/>
<path d="M7805 5840 c-13 -5 -14 -9 -5 -9 8 0 24 4 35 9 13 5 14 9 5 9 -8 0
-24 -4 -35 -9z"/>
<path d="M7523 5755 c-18 -8 -33 -17 -33 -20 0 -5 70 21 79 30 9 9 -14 4 -46
-10z"/>
<path d="M7957 5516 c-4 -10 -1 -13 9 -9 7 3 14 9 14 14 0 14 -17 10 -23 -5z"/>
<path d="M7740 5510 c0 -5 -9 -11 -20 -15 -11 -3 -19 -9 -18 -13 4 -17 -15
-52 -28 -52 -22 0 -17 -21 22 -77 39 -57 53 -60 116 -25 43 24 53 69 26 112
-10 18 -14 29 -8 25 5 -3 10 -2 10 3 0 5 -8 12 -17 15 -10 4 -33 13 -50 21
-18 8 -33 11 -33 6z"/>
<path d="M7488 5413 c-10 -2 -18 -8 -18 -13 0 -13 -63 -18 -82 -6 -20 12 -27
7 -32 -21 -3 -14 15 -40 60 -87 36 -36 69 -67 74 -67 6 -1 16 -2 23 -3 6 -1
17 0 22 3 9 5 14 7 33 10 4 0 20 12 35 26 15 14 27 23 27 20 0 -3 9 -1 20 5
30 16 25 59 -11 103 -28 34 -34 37 -82 36 -29 -1 -60 -3 -69 -6z"/>
<path d="M7315 5400 c-3 -6 1 -7 9 -4 18 7 21 14 7 14 -6 0 -13 -4 -16 -10z"/>
<path d="M7043 5084 c-7 -7 -13 -18 -13 -24 0 -5 -6 -10 -13 -10 -7 0 -22 -7
-33 -15 -18 -15 -18 -15 8 -9 83 18 313 -46 449 -126 68 -41 99 -53 99 -39 0
6 5 7 10 4 14 -9 13 -5 -10 40 -11 22 -20 49 -20 61 0 18 -19 84 -24 84 -1 0
-26 9 -56 21 -50 19 -170 33 -170 20 0 -3 -14 -7 -31 -8 -17 -1 -37 -7 -44
-13 -6 -5 -15 -7 -19 -3 -14 15 -38 12 -32 -4 5 -13 4 -14 -9 -3 -8 7 -13 16
-10 20 2 4 -7 5 -20 2 -14 -2 -31 0 -38 6 -8 7 -16 6 -24 -4z"/>
<path d="M605 5060 c3 -5 13 -10 21 -10 8 0 14 5 14 10 0 6 -9 10 -21 10 -11
0 -17 -4 -14 -10z"/>
<path d="M9384 4995 c-6 -25 -6 -45 -2 -45 5 0 7 -4 4 -9 -7 -11 22 -23 35
-15 5 3 9 0 9 -5 0 -6 -5 -11 -11 -11 -5 0 -7 -6 -3 -12 6 -10 4 -10 -8 0 -15
12 -15 9 -6 -28 11 -42 28 -49 56 -22 16 14 46 16 37 2 -4 -6 -10 -8 -15 -5
-4 3 -6 -5 -3 -17 4 -19 3 -20 -6 -8 -9 13 -11 11 -11 -7 0 -36 11 -53 36 -53
15 0 24 -6 24 -15 0 -8 3 -14 8 -14 4 1 9 0 12 -1 9 -3 54 -11 78 -13 12 -1
22 -8 22 -14 0 -7 4 -13 9 -13 5 0 17 -3 27 -7 12 -4 15 -3 10 5 -4 7 -2 12 3
12 18 0 14 187 -5 236 -19 50 -55 64 -77 31 -9 -14 -23 -20 -47 -19 -19 0 -36
5 -38 10 -1 4 -16 6 -32 4 -23 -3 -30 0 -30 12 0 9 -4 16 -10 16 -5 0 -10 7
-10 15 0 12 -28 35 -42 35 -2 0 -8 -20 -14 -45z"/>
<path d="M6839 4973 c-13 -16 -12 -17 4 -4 9 7 17 15 17 17 0 8 -8 3 -21 -13z"/>
<path d="M385 4940 c-3 -5 1 -10 9 -10 9 0 16 5 16 10 0 6 -4 10 -9 10 -6 0
-13 -4 -16 -10z"/>
<path d="M9712 4930 c0 -14 2 -19 5 -12 2 6 2 18 0 25 -3 6 -5 1 -5 -13z"/>
<path d="M9713 4825 c0 -38 2 -53 4 -32 2 20 2 52 0 70 -2 17 -4 1 -4 -38z"/>
<path d="M430 4860 c8 -5 20 -10 25 -10 6 0 3 5 -5 10 -8 5 -19 10 -25 10 -5
0 -3 -5 5 -10z"/>
<path d="M7564 4835 c10 -8 23 -12 27 -9 5 3 9 0 9 -5 0 -6 7 -11 15 -11 30 0
-6 35 -38 37 -30 2 -31 1 -13 -12z"/>
<path d="M9712 4725 c0 -16 2 -22 5 -12 2 9 2 23 0 30 -3 6 -5 -1 -5 -18z"/>
<path d="M9712 4660 c0 -14 2 -19 5 -12 2 6 2 18 0 25 -3 6 -5 1 -5 -13z"/>
<path d="M8399 4513 c-1 -5 -1 -11 0 -16 1 -4 -10 -5 -24 -1 -19 5 -25 2 -25
-11 0 -14 3 -15 14 -6 11 10 16 9 24 -5 13 -23 32 -9 30 21 -2 23 -16 36 -19
18z"/>
<path d="M5173 4459 c-5 -5 -22 -11 -37 -13 -16 -2 -32 -9 -36 -16 -7 -11 -11
-11 -23 -1 -22 17 -27 1 -14 -41 12 -39 33 -51 61 -36 23 13 46 3 46 -21 0
-12 9 -20 24 -23 31 -6 90 46 83 73 -3 10 2 20 12 24 14 6 14 8 -4 17 -19 11
-19 11 0 19 17 6 16 8 -7 8 -16 1 -28 6 -28 11 0 13 -63 13 -77 -1z"/>
<path d="M8675 4460 c-3 -5 -1 -10 4 -10 6 0 11 5 11 10 0 6 -2 10 -4 10 -3 0
-8 -4 -11 -10z"/>
<path d="M8700 4390 c-8 -5 -11 -12 -7 -16 4 -4 13 -2 19 4 15 15 7 24 -12 12z"/>
<path d="M8825 4380 c-3 -5 -1 -10 4 -10 6 0 11 5 11 10 0 6 -2 10 -4 10 -3 0
-8 -4 -11 -10z"/>
<path d="M8778 4373 c6 -2 18 -2 25 0 6 3 1 5 -13 5 -14 0 -19 -2 -12 -5z"/>
<path d="M8670 4350 c0 -6 7 -13 15 -16 8 -4 12 -10 9 -15 -3 -5 4 -9 15 -9
12 0 21 7 21 15 0 8 -9 15 -20 15 -11 0 -20 5 -20 10 0 6 -4 10 -10 10 -5 0
-10 -5 -10 -10z"/>
<path d="M9181 4344 c0 -12 5 -24 12 -27 8 -3 14 1 14 9 0 7 -4 11 -8 8 -4 -2
-10 4 -12 13 -4 14 -5 14 -6 -3z"/>
<path d="M9280 4330 c0 -5 5 -10 10 -10 6 0 10 5 10 10 0 6 -4 10 -10 10 -5 0
-10 -4 -10 -10z"/>
<path d="M9230 4280 c-8 -5 -10 -10 -5 -11 6 0 -1 -5 -15 -9 -24 -8 -24 -8 -3
-9 13 -1 27 8 33 19 12 23 11 24 -10 10z"/>
<path d="M9525 4250 c3 -5 8 -10 11 -10 2 0 4 5 4 10 0 6 -5 10 -11 10 -5 0
-7 -4 -4 -10z"/>
<path d="M8740 4240 c0 -5 5 -10 10 -10 6 0 10 5 10 10 0 6 -4 10 -10 10 -5 0
-10 -4 -10 -10z"/>
<path d="M9711 4164 c0 -11 3 -14 6 -6 3 7 2 16 -1 19 -3 4 -6 -2 -5 -13z"/>
<path d="M9712 4095 c0 -16 2 -22 5 -12 2 9 2 23 0 30 -3 6 -5 -1 -5 -18z"/>
<path d="M0 3683 l0 -66 21 19 c12 10 30 31 40 46 l20 27 -41 20 -40 19 0 -65z"/>
<path d="M71 3234 c-49 -25 -71 -42 -71 -54 0 -23 19 -30 43 -18 14 7 16 12 7
23 -15 19 -3 38 21 32 10 -3 17 0 16 6 -1 6 16 16 37 22 22 6 35 14 29 18 -5
3 -42 -10 -82 -29z"/>
<path d="M365 3190 c3 -5 8 -10 11 -10 2 0 4 5 4 10 0 6 -5 10 -11 10 -5 0 -7
-4 -4 -10z"/>
<path d="M468 3193 c6 -2 18 -2 25 0 6 3 1 5 -13 5 -14 0 -19 -2 -12 -5z"/>
<path d="M279 2822 c-13 -10 -33 -22 -44 -26 -13 -5 -15 -10 -8 -13 7 -2 26 5
42 16 16 12 34 21 39 21 6 0 14 5 17 10 10 17 -21 11 -46 -8z"/>
<path d="M370 2775 c-10 -12 -10 -15 3 -15 8 0 20 7 27 15 10 12 10 15 -3 15
-8 0 -20 -7 -27 -15z"/>
<path d="M650 2770 c0 -5 5 -10 10 -10 6 0 10 5 10 10 0 6 -4 10 -10 10 -5 0
-10 -4 -10 -10z"/>
<path d="M1315 2721 c-3 -5 -1 -12 4 -15 5 -3 11 1 15 9 6 16 -9 21 -19 6z"/>
<path d="M236 2675 c-4 -13 -2 -14 14 -5 23 13 26 20 6 20 -8 0 -16 -7 -20
-15z"/>
<path d="M616 2505 c-3 -8 -2 -15 3 -15 5 0 14 7 21 15 10 12 10 15 -3 15 -8
0 -17 -7 -21 -15z"/>
</g>
</svg>
